<svg version="1.1" id="Layer_1" xmlns="http://www.w3.org/2000/svg" xmlns:xlink="http://www.w3.org/1999/xlink" x="0px" y="0px" width="2000" viewBox="0 0 2000 1610" enable-background="new 0 0 2000 1610" xml:space="preserve" height="1610">
<path fill="#000000" opacity="1.000000" stroke="none" d="
M1.000000,547.000000 
	C1.000000,364.666656 1.000000,182.833328 1.000000,1.000000 
	C667.666687,1.000000 1334.333374,1.000000 2001.000000,1.000000 
	C2001.000000,537.666687 2001.000000,1074.333374 2001.000000,1611.000000 
	C1334.333374,1611.000000 667.666687,1611.000000 1.000000,1611.000000 
	C1.000000,1256.500000 1.000000,902.000000 1.000000,547.000000 
M94.000313,1251.501465 
	C94.325676,1259.630981 93.934517,1267.867798 95.133041,1275.866455 
	C97.293579,1290.285278 99.177704,1304.930420 103.352203,1318.827759 
	C115.558327,1359.463135 138.519638,1393.344727 170.056549,1421.758179 
	C191.250153,1440.852661 214.680206,1456.468750 239.935623,1469.370361 
	C275.689087,1487.634888 313.522736,1500.177246 352.549774,1509.447754 
	C388.168182,1517.908447 424.247742,1523.370361 460.622131,1526.844971 
	C481.590424,1528.847778 502.659943,1530.441772 523.707947,1530.797974 
	C551.492554,1531.267944 579.307983,1530.629028 607.096191,1529.919189 
	C625.841370,1529.440308 644.574646,1528.200439 663.290527,1526.959106 
	C679.838440,1525.861450 696.401672,1524.702515 712.873901,1522.829346 
	C735.278198,1520.281616 757.660889,1517.409546 779.946411,1513.984131 
	C808.982849,1509.521240 838.100891,1505.276245 866.848022,1499.317383 
	C908.839233,1490.613281 950.759216,1481.354126 992.286682,1470.685303 
	C1032.557251,1460.339478 1072.536255,1448.686890 1112.210205,1436.229126 
	C1178.150757,1415.523560 1243.066040,1391.853638 1306.470581,1364.259155 
	C1339.727295,1349.785156 1372.872925,1335.013184 1405.646851,1319.485596 
	C1430.167725,1307.868286 1454.208496,1295.188721 1478.107422,1282.321411 
	C1503.151855,1268.837402 1528.079468,1255.080811 1552.507080,1240.518921 
	C1591.245117,1217.426514 1629.000244,1192.792969 1665.583618,1166.353394 
	C1707.251831,1136.238892 1747.116943,1103.954834 1784.564087,1068.753540 
	C1797.773438,1056.336548 1809.999268,1042.872314 1822.647339,1029.859985 
	C1842.144653,1009.801636 1859.627686,988.070557 1876.079346,965.480896 
	C1896.827515,936.991699 1914.815918,906.897644 1928.281006,874.273926 
	C1945.435425,832.711914 1955.023926,789.827698 1951.156006,744.433777 
	C1949.632446,726.552063 1946.083130,709.206421 1940.462280,692.322327 
	C1929.940552,660.716797 1912.254883,633.284607 1889.520020,609.139771 
	C1875.921753,594.698303 1860.511719,582.270691 1844.128662,571.076050 
	C1826.071167,558.737122 1807.197388,547.747192 1786.907227,539.608948 
	C1766.692749,531.500977 1746.264648,523.801147 1725.552246,517.088379 
	C1696.719971,507.744080 1666.936279,502.142548 1637.037720,497.390991 
	C1632.798584,496.717285 1631.194702,494.616486 1629.631226,491.303375 
	C1622.320068,475.809540 1615.165894,460.230865 1607.405762,444.961914 
	C1591.158203,412.992920 1571.668457,383.055847 1550.267944,354.286285 
	C1531.483887,329.034027 1511.040771,305.215332 1489.050415,282.785583 
	C1475.331543,268.792786 1460.997314,255.285233 1445.963013,242.728775 
	C1425.325928,225.493042 1404.343018,208.553223 1382.467163,192.945740 
	C1346.508911,167.291000 1308.571533,144.700882 1268.143433,126.729980 
	C1242.008911,115.112816 1215.633545,103.891106 1188.805664,94.014542 
	C1149.870361,79.680717 1109.714111,69.308922 1068.833740,62.173531 
	C1047.116821,58.382984 1025.205078,55.565075 1003.294189,53.074539 
	C986.002991,51.109108 968.580261,49.196865 951.213196,49.171749 
	C761.727051,48.897701 572.240356,48.976345 382.753906,49.087021 
	C375.158569,49.091457 367.421753,49.671814 359.994904,51.183121 
	C334.766907,56.316799 313.777069,68.510956 298.715820,89.894180 
	C285.593414,108.524719 280.146729,129.702209 280.118500,152.023865 
	C279.902618,322.844757 280.000000,493.666077 279.999786,664.487244 
	C279.999786,665.987122 279.933350,667.490234 280.007843,668.986328 
	C280.182343,672.489868 278.759308,673.112549 275.402527,672.390686 
	C257.012054,668.435486 238.597702,666.206238 219.578690,667.757019 
	C196.517517,669.637329 174.634384,675.142090 153.940292,685.132446 
	C131.698853,695.869873 112.261086,710.421814 96.076332,729.304321 
	C83.070419,744.478088 72.418091,761.011353 65.011864,779.559937 
	C55.093784,804.399231 50.374630,830.061646 51.828297,856.965820 
	C52.633293,871.864624 54.733658,886.413391 59.089794,900.590393 
	C68.867195,932.410767 85.749023,959.757629 110.584618,982.209900 
	C126.685982,996.766113 144.449783,1008.479187 164.665634,1016.343079 
	C172.812805,1019.512390 181.180450,1022.114868 190.138260,1025.214111 
	C187.779831,1028.324463 185.677185,1031.228149 183.441650,1034.025391 
	C162.075333,1060.761353 143.213364,1089.213135 128.316757,1119.978516 
	C119.575912,1138.030640 112.457069,1156.987793 106.064484,1176.026733 
	C97.991547,1200.070312 93.690590,1224.976196 94.000313,1251.501465 
z"></path>
<path fill="#06080B" opacity="1.000000" stroke="none" d="
M94.000305,1251.001953 
	C93.690590,1224.976196 97.991547,1200.070312 106.064484,1176.026733 
	C112.457069,1156.987793 119.575912,1138.030640 128.316757,1119.978516 
	C143.213364,1089.213135 162.075333,1060.761353 183.441650,1034.025391 
	C185.677185,1031.228149 187.779831,1028.324463 190.138260,1025.214111 
	C181.180450,1022.114868 172.812805,1019.512390 164.665634,1016.343079 
	C144.449783,1008.479187 126.685982,996.766113 110.584618,982.209900 
	C85.749023,959.757629 68.867195,932.410767 59.089794,900.590393 
	C54.733658,886.413391 52.633293,871.864624 51.828297,856.965820 
	C50.374630,830.061646 55.093784,804.399231 65.011864,779.559937 
	C72.418091,761.011353 83.070419,744.478088 96.076332,729.304321 
	C112.261086,710.421814 131.698853,695.869873 153.940292,685.132446 
	C174.634384,675.142090 196.517517,669.637329 219.578690,667.757019 
	C238.597702,666.206238 257.012054,668.435486 275.402527,672.390686 
	C278.759308,673.112549 280.182343,672.489868 280.007843,668.986328 
	C279.933350,667.490234 279.999786,665.987122 279.999786,664.487244 
	C280.000000,493.666077 279.902618,322.844757 280.118500,152.023865 
	C280.146729,129.702209 285.593414,108.524719 298.715820,89.894180 
	C313.777069,68.510956 334.766907,56.316799 359.994904,51.183121 
	C367.421753,49.671814 375.158569,49.091457 382.753906,49.087021 
	C572.240356,48.976345 761.727051,48.897701 951.213196,49.171749 
	C968.580261,49.196865 986.002991,51.109108 1003.294189,53.074539 
	C1025.205078,55.565075 1047.116821,58.382984 1068.833740,62.173531 
	C1109.714111,69.308922 1149.870361,79.680717 1188.805664,94.014542 
	C1215.633545,103.891106 1242.008911,115.112816 1268.143433,126.729980 
	C1308.571533,144.700882 1346.508911,167.291000 1382.467163,192.945740 
	C1404.343018,208.553223 1425.325928,225.493042 1445.963013,242.728775 
	C1460.997314,255.285233 1475.331543,268.792786 1489.050415,282.785583 
	C1511.040771,305.215332 1531.483887,329.034027 1550.267944,354.286285 
	C1571.668457,383.055847 1591.158203,412.992920 1607.405762,444.961914 
	C1615.165894,460.230865 1622.320068,475.809540 1629.631226,491.303375 
	C1631.194702,494.616486 1632.798584,496.717285 1637.037720,497.390991 
	C1666.936279,502.142548 1696.719971,507.744080 1725.552246,517.088379 
	C1746.264648,523.801147 1766.692749,531.500977 1786.907227,539.608948 
	C1807.197388,547.747192 1826.071167,558.737122 1844.128662,571.076050 
	C1860.511719,582.270691 1875.921753,594.698303 1889.520020,609.139771 
	C1912.254883,633.284607 1929.940552,660.716797 1940.462280,692.322327 
	C1946.083130,709.206421 1949.632446,726.552063 1951.156006,744.433777 
	C1955.023926,789.827698 1945.435425,832.711914 1928.281006,874.273926 
	C1914.815918,906.897644 1896.827515,936.991699 1876.079346,965.480896 
	C1859.627686,988.070557 1842.144653,1009.801636 1822.647339,1029.859985 
	C1809.999268,1042.872314 1797.773438,1056.336548 1784.564087,1068.753540 
	C1747.116943,1103.954834 1707.251831,1136.238892 1665.583618,1166.353394 
	C1629.000244,1192.792969 1591.245117,1217.426514 1552.507080,1240.518921 
	C1528.079468,1255.080811 1503.151855,1268.837402 1478.107422,1282.321411 
	C1454.208496,1295.188721 1430.167725,1307.868286 1405.646851,1319.485596 
	C1372.872925,1335.013184 1339.727295,1349.785156 1306.470581,1364.259155 
	C1243.066040,1391.853638 1178.150757,1415.523560 1112.210205,1436.229126 
	C1072.536255,1448.686890 1032.557251,1460.339478 992.286682,1470.685303 
	C950.759216,1481.354126 908.839233,1490.613281 866.848022,1499.317383 
	C838.100891,1505.276245 808.982849,1509.521240 779.946411,1513.984131 
	C757.660889,1517.409546 735.278198,1520.281616 712.873901,1522.829346 
	C696.401672,1524.702515 679.838440,1525.861450 663.290527,1526.959106 
	C644.574646,1528.200439 625.841370,1529.440308 607.096191,1529.919189 
	C579.307983,1530.629028 551.492554,1531.267944 523.707947,1530.797974 
	C502.659943,1530.441772 481.590424,1528.847778 460.622131,1526.844971 
	C424.247742,1523.370361 388.168182,1517.908447 352.549774,1509.447754 
	C313.522736,1500.177246 275.689087,1487.634888 239.935623,1469.370361 
	C214.680206,1456.468750 191.250153,1440.852661 170.056549,1421.758179 
	C138.519638,1393.344727 115.558327,1359.463135 103.352203,1318.827759 
	C99.177704,1304.930420 97.293579,1290.285278 95.133041,1275.866455 
	C93.934517,1267.867798 94.325676,1259.630981 94.000305,1251.001953 
M824.085022,111.163116 
	C806.060486,111.220581 788.036011,111.278046 769.087280,111.165337 
	C750.728882,111.221481 732.370483,111.277626 713.087585,111.165207 
	C695.395752,111.221466 677.703979,111.277718 659.087280,111.167679 
	C643.063049,111.224068 627.038879,111.280457 610.089600,111.170181 
	C593.398010,111.223961 576.706360,111.277740 559.089417,111.167274 
	C543.733337,111.222115 528.377258,111.276955 512.093201,111.168785 
	C501.401184,111.221733 490.709198,111.274681 479.088959,111.167740 
	C471.728851,111.221764 464.368774,111.275787 456.082794,111.174309 
	C448.059692,111.225754 440.036621,111.277199 431.087158,111.172127 
	C422.399139,111.221230 413.711151,111.270332 404.093475,111.160316 
	C396.405487,111.246872 388.717468,111.333435 380.232117,111.316978 
	C374.140930,112.843758 368.049774,114.370537 361.319122,116.163078 
	C349.088684,122.441711 343.403473,133.372849 343.220856,146.205826 
	C342.666992,185.131012 343.056885,224.069641 342.976379,263.935242 
	C343.009369,313.622955 343.042358,363.310669 342.976685,413.931580 
	C343.008270,453.952484 343.039825,493.973358 342.976501,534.928528 
	C343.005096,570.283508 343.033661,605.638550 342.985962,641.929138 
	C342.977509,661.088257 343.134277,680.249939 342.836151,699.404541 
	C342.767792,703.798706 344.398224,706.422363 347.555847,709.028809 
	C366.132721,724.363037 381.206482,742.606812 392.467316,763.941467 
	C411.295166,799.612610 417.138092,837.490906 411.003540,877.175354 
	C405.292786,914.117920 389.227478,946.136719 363.347412,973.099121 
	C356.919159,979.796265 349.775543,985.806702 342.321472,992.317139 
	C324.523865,1005.457581 305.337036,1016.069397 283.873047,1021.637878 
	C275.461975,1023.819885 269.826172,1028.459229 264.390198,1035.268555 
	C236.653671,1065.574951 211.655853,1097.914307 191.681122,1133.925781 
	C176.665588,1160.996582 164.941055,1189.353271 159.434982,1219.991333 
	C151.060928,1266.587891 158.847488,1309.794800 187.366653,1348.288940 
	C208.317047,1376.567017 235.899796,1396.865845 267.607849,1413.088501 
	C299.116638,1429.325928 332.440948,1440.463867 367.504700,1448.845581 
	C382.346130,1451.739868 397.113403,1455.119263 412.048279,1457.402222 
	C429.623413,1460.088623 447.343903,1461.823853 465.795715,1464.215576 
	C467.278351,1464.428223 468.754974,1464.760010 470.244568,1464.835205 
	C493.527008,1466.011719 516.805725,1467.287720 540.097534,1468.242310 
	C549.728394,1468.637085 559.388062,1468.326172 569.878601,1468.577637 
	C610.683411,1468.081787 651.409729,1466.171753 692.840210,1461.882568 
	C701.911987,1460.914307 711.010315,1460.144653 720.050354,1458.938477 
	C742.092407,1455.997314 764.107422,1452.854126 786.875305,1449.852539 
	C790.986877,1449.221313 795.116516,1448.689087 799.206970,1447.942017 
	C818.497620,1444.418823 837.777588,1440.836792 857.907166,1437.264038 
	C873.040283,1434.167725 888.246887,1431.388428 903.289917,1427.903442 
	C928.249329,1422.121216 953.103455,1415.885010 978.764954,1409.845825 
	C988.559937,1407.227417 998.412964,1404.806885 1008.138550,1401.952148 
	C1033.481445,1394.513550 1058.768311,1386.884399 1084.867432,1379.228027 
	C1106.039307,1372.244507 1127.275757,1365.449219 1148.361084,1358.213379 
	C1163.125122,1353.146973 1177.682495,1347.478760 1193.148438,1342.017090 
	C1230.133179,1327.114136 1267.245605,1312.517822 1304.050537,1297.183350 
	C1323.347900,1289.143188 1342.105957,1279.808594 1361.819946,1270.983765 
	C1400.561157,1251.057129 1439.461670,1231.432007 1477.971436,1211.067871 
	C1495.437988,1201.831665 1512.129517,1191.129883 1529.847290,1180.952759 
	C1569.040405,1157.346313 1607.210571,1132.185425 1643.728760,1104.618286 
	C1662.291382,1090.605591 1680.187866,1075.710693 1698.994995,1060.970459 
	C1703.884399,1056.813232 1708.830811,1052.720825 1713.654175,1048.488281 
	C1746.022217,1020.085083 1776.597534,989.907837 1803.927734,956.565735 
	C1832.367554,921.869995 1856.962036,884.820068 1873.500488,842.808960 
	C1885.572021,812.144409 1891.503662,780.428650 1888.625732,747.572327 
	C1885.363281,710.323608 1869.338745,678.682312 1843.489136,651.889038 
	C1819.136719,626.647766 1789.783325,608.866760 1757.874390,595.058533 
	C1703.364746,571.470215 1645.833008,560.333069 1586.909546,553.398560 
	C1584.943604,548.264893 1582.977783,543.131165 1580.969849,537.248047 
	C1574.131348,521.468018 1567.878296,505.399841 1560.291138,489.988373 
	C1552.562012,474.288239 1543.520386,459.234222 1534.906982,443.219849 
	C1527.909302,432.322296 1521.422241,421.051758 1513.796265,410.613373 
	C1501.954224,394.404449 1489.336792,378.762054 1476.812256,362.257660 
	C1466.869019,351.267059 1457.172485,340.039185 1446.905762,329.359680 
	C1438.429688,320.542999 1429.312622,312.339417 1420.414795,303.932617 
	C1414.932739,298.753021 1409.329346,293.701874 1403.361816,288.043671 
	C1396.712158,282.496613 1390.151611,276.838593 1383.399048,271.419769 
	C1323.470825,223.328339 1257.224121,186.344833 1185.411011,159.253769 
	C1151.439941,146.438431 1116.753052,135.956421 1080.508301,128.210098 
	C1071.741455,126.474144 1063.032593,124.326157 1054.196289,123.084694 
	C1033.330444,120.153122 1012.430603,117.416084 991.492126,115.066315 
	C978.714355,113.632339 965.839478,113.062775 952.090332,111.975700 
	C948.937561,111.974098 945.784607,111.996910 942.632141,111.966957 
	C921.094482,111.762360 899.556946,111.546669 877.093628,111.161552 
	C859.732056,111.218803 842.370544,111.276054 824.085022,111.163116 
M125.197838,813.471191 
	C117.577515,838.184631 117.500175,862.740112 126.835930,887.849121 
	C152.955338,962.348389 251.053726,985.909241 309.083069,931.593994 
	C322.151886,919.361694 332.410706,905.208862 338.613556,887.519348 
	C345.536133,870.767578 346.005676,853.137939 344.697937,835.527100 
	C344.106232,827.558716 341.133514,819.767029 339.151855,811.138794 
	C333.568512,794.714539 324.113922,780.589233 312.122162,768.358276 
	C279.726318,735.316040 230.225250,726.775879 188.790604,744.415405 
	C157.721329,757.642212 136.140350,780.343323 125.197838,813.471191 
z"></path>
<path fill="#0598DA" opacity="1.000000" stroke="none" d="
M953.008240,112.104973 
	C965.839478,113.062775 978.714355,113.632339 991.492126,115.066315 
	C1012.430603,117.416084 1033.330444,120.153122 1054.196289,123.084694 
	C1063.032593,124.326157 1071.741455,126.474144 1080.678711,128.776230 
	C1078.237305,143.683319 1074.649048,157.930939 1073.266846,172.389465 
	C1071.633545,189.474991 1074.028198,206.513412 1078.016113,223.276733 
	C1084.916260,252.283340 1097.610229,278.409607 1117.404663,300.715271 
	C1135.922241,321.582062 1157.492432,338.628998 1183.609009,349.257202 
	C1205.022461,357.971497 1227.209473,363.334930 1250.409424,363.993011 
	C1273.111938,364.637024 1295.013672,360.625031 1316.409302,353.082550 
	C1346.263184,342.558319 1371.494019,325.426025 1392.133179,301.451447 
	C1395.905029,297.070129 1399.892456,292.874451 1403.780396,288.593018 
	C1409.329346,293.701874 1414.932739,298.753021 1420.414795,303.932617 
	C1429.312622,312.339417 1438.429688,320.542999 1446.905762,329.359680 
	C1457.172485,340.039185 1466.869019,351.267059 1476.905029,362.945282 
	C1476.284668,365.282806 1475.971924,367.326904 1474.796021,368.521271 
	C1463.617554,379.875671 1452.936646,391.837982 1440.868530,402.172699 
	C1419.182617,420.743866 1394.974854,435.556152 1368.592651,446.744690 
	C1335.031372,460.977814 1299.992554,468.703186 1263.663330,469.805298 
	C1247.455200,470.296997 1231.183228,468.679688 1214.645508,467.865479 
	C1197.941650,448.407959 1179.532471,431.186005 1159.542969,415.678223 
	C1119.713501,384.778656 1075.170410,363.140076 1026.895386,349.063385 
	C1014.041138,345.315186 1000.974609,342.295105 987.989136,338.575623 
	C987.632385,337.289917 987.410950,336.302185 986.934448,335.458466 
	C972.553101,309.993103 961.038330,283.300232 954.904846,254.667099 
	C951.304077,237.857132 949.062561,220.715805 946.991577,203.628769 
	C944.543701,183.431763 945.765015,163.202286 948.497498,143.078522 
	C949.901306,132.740463 951.498413,122.428642 953.008240,112.104973 
z"></path>
<path fill="#19B48D" opacity="1.000000" stroke="none" d="
M1587.134033,554.143799 
	C1645.833008,560.333069 1703.364746,571.470215 1757.874390,595.058533 
	C1789.783325,608.866760 1819.136719,626.647766 1843.489136,651.889038 
	C1869.338745,678.682312 1885.363281,710.323608 1888.625732,747.572327 
	C1891.503662,780.428650 1885.572021,812.144409 1873.500488,842.808960 
	C1856.962036,884.820068 1832.367554,921.869995 1803.927734,956.565735 
	C1776.597534,989.907837 1746.022217,1020.085083 1713.654175,1048.488281 
	C1708.830811,1052.720825 1703.884399,1056.813232 1698.378784,1060.779663 
	C1697.508301,1058.309326 1697.033569,1056.029785 1697.032104,1053.750122 
	C1696.991943,991.483215 1697.020752,929.216248 1696.923218,866.949524 
	C1696.919312,864.487854 1695.789429,862.027893 1695.388184,859.284119 
	C1699.283325,854.945190 1702.906250,850.824707 1706.677246,846.844482 
	C1725.171753,827.323486 1741.667603,806.243469 1755.264160,783.040833 
	C1771.223267,755.806030 1783.124634,727.433105 1782.243042,694.742615 
	C1781.700928,674.634094 1775.852173,656.924744 1764.343994,640.857300 
	C1751.333984,622.693115 1733.714478,610.016235 1714.040039,600.073181 
	C1675.662231,580.677856 1634.228516,572.676880 1591.909424,567.484924 
	C1590.269165,562.804077 1588.701538,558.473938 1587.134033,554.143799 
z"></path>
<path fill="#05A4E0" opacity="1.000000" stroke="none" d="
M1403.571045,288.318329 
	C1399.892456,292.874451 1395.905029,297.070129 1392.133179,301.451447 
	C1371.494019,325.426025 1346.263184,342.558319 1316.409302,353.082550 
	C1295.013672,360.625031 1273.111938,364.637024 1250.409424,363.993011 
	C1227.209473,363.334930 1205.022461,357.971497 1183.609009,349.257202 
	C1157.492432,338.628998 1135.922241,321.582062 1117.404663,300.715271 
	C1097.610229,278.409607 1084.916260,252.283340 1078.016113,223.276733 
	C1074.028198,206.513412 1071.633545,189.474991 1073.266846,172.389465 
	C1074.649048,157.930939 1078.237305,143.683319 1081.007446,128.963959 
	C1116.753052,135.956421 1151.439941,146.438431 1185.411011,159.253769 
	C1257.224121,186.344833 1323.470825,223.328339 1383.399048,271.419769 
	C1390.151611,276.838593 1396.712158,282.496613 1403.571045,288.318329 
z"></path>
<path fill="#16B091" opacity="1.000000" stroke="none" d="
M1695.184326,859.567139 
	C1695.789429,862.027893 1696.919312,864.487854 1696.923218,866.949524 
	C1697.020752,929.216248 1696.991943,991.483215 1697.032104,1053.750122 
	C1697.033569,1056.029785 1697.508301,1058.309326 1698.074097,1060.901733 
	C1680.187866,1075.710693 1662.291382,1090.605591 1643.728760,1104.618286 
	C1607.210571,1132.185425 1569.040405,1157.346313 1529.169678,1180.801880 
	C1527.994751,1178.307739 1527.066650,1175.965088 1527.062988,1173.621094 
	C1526.969360,1113.365967 1526.972046,1053.110840 1527.142578,992.577148 
	C1550.958008,975.939575 1574.903809,960.013855 1598.145508,943.119751 
	C1632.762451,917.957275 1665.044922,889.981384 1695.184326,859.567139 
z"></path>
<path fill="#12AC92" opacity="1.000000" stroke="none" d="
M1526.958008,992.855591 
	C1526.972046,1053.110840 1526.969360,1113.365967 1527.062988,1173.621094 
	C1527.066650,1175.965088 1527.994751,1178.307739 1528.832275,1180.871826 
	C1512.129517,1191.129883 1495.437988,1201.831665 1477.971436,1211.067871 
	C1439.461670,1231.432007 1400.561157,1251.057129 1361.124268,1270.856689 
	C1356.677002,1269.466187 1356.985107,1266.370239 1356.985474,1263.318726 
	C1356.992798,1204.834961 1356.975220,1146.351318 1357.174927,1087.599609 
	C1396.458374,1066.438965 1435.693481,1045.844360 1474.527954,1024.520264 
	C1492.409058,1014.701782 1509.505615,1003.454834 1526.958008,992.855591 
z"></path>
<path fill="#00709F" opacity="1.000000" stroke="none" d="
M366.892456,1448.435669 
	C332.440948,1440.463867 299.116638,1429.325928 267.301758,1412.482544 
	C266.663757,1407.583252 266.043854,1403.290161 266.041962,1398.996704 
	C265.989502,1280.772339 266.007812,1162.548096 265.957367,1044.323730 
	C265.956024,1041.200195 265.320984,1038.077026 264.981476,1034.953613 
	C269.826172,1028.459229 275.461975,1023.819885 283.873047,1021.637878 
	C305.337036,1016.069397 324.523865,1005.457581 342.628967,992.683350 
	C343.003845,1018.391296 343.071259,1043.732910 343.001038,1069.392822 
	C341.928131,1071.283447 340.997437,1072.858765 340.056915,1074.428101 
	C325.836853,1098.154541 314.639526,1122.966431 311.688568,1150.910645 
	C309.121948,1175.215332 314.394897,1197.468018 328.205078,1217.664551 
	C336.782074,1230.208130 348.196869,1239.851318 359.811951,1249.087402 
	C355.904755,1250.000610 354.931030,1252.228882 354.936279,1255.763184 
	C355.025940,1315.859863 355.039154,1375.956787 354.916412,1436.053345 
	C354.907928,1440.206909 356.367767,1442.199341 360.295593,1442.895264 
	C363.486786,1443.460693 366.601837,1444.322754 366.892456,1448.435669 
z"></path>
<path fill="#0FA894" opacity="1.000000" stroke="none" d="
M1356.962769,1087.867554 
	C1356.975220,1146.351318 1356.992798,1204.834961 1356.985474,1263.318726 
	C1356.985107,1266.370239 1356.677002,1269.466187 1360.768066,1270.894287 
	C1342.105957,1279.808594 1323.347900,1289.143188 1304.050537,1297.183350 
	C1267.245605,1312.517822 1230.133179,1327.114136 1192.642578,1341.549927 
	C1191.757935,1338.135986 1191.051758,1335.189697 1191.048462,1332.242554 
	C1190.983887,1274.841553 1191.001099,1217.440552 1191.283447,1159.814575 
	C1230.139160,1143.384155 1268.792847,1127.364990 1307.250000,1110.887207 
	C1324.028320,1103.698120 1340.404175,1095.569458 1356.962769,1087.867554 
z"></path>
<path fill="#037DC7" opacity="1.000000" stroke="none" d="
M1535.053467,443.897308 
	C1543.520386,459.234222 1552.562012,474.288239 1560.291138,489.988373 
	C1567.878296,505.399841 1574.131348,521.468018 1580.650391,537.679688 
	C1579.260010,538.868286 1578.150024,539.575928 1577.124268,540.389771 
	C1561.786743,552.559021 1546.901489,565.354553 1531.033813,576.786804 
	C1503.407837,596.690613 1473.749146,613.357239 1442.029175,625.715210 
	C1418.678833,634.812439 1394.841553,643.025879 1370.646240,649.476135 
	C1350.207275,654.924866 1328.941895,657.274414 1307.862305,660.661011 
	C1302.208008,641.697510 1297.164917,622.927307 1291.115967,604.487061 
	C1286.728394,591.111572 1281.008911,578.173035 1276.350830,565.030029 
	C1293.760864,563.008362 1310.838013,561.765686 1327.620483,558.835510 
	C1372.179199,551.055786 1413.766846,534.807190 1452.221313,511.201477 
	C1469.998047,500.288910 1486.939209,487.811401 1503.244629,474.774475 
	C1514.732666,465.589172 1524.511475,454.265930 1535.053467,443.897308 
z"></path>
<path fill="#006B9C" opacity="1.000000" stroke="none" d="
M264.685852,1035.111084 
	C265.320984,1038.077026 265.956024,1041.200195 265.957367,1044.323730 
	C266.007812,1162.548096 265.989502,1280.772339 266.041962,1398.996704 
	C266.043854,1403.290161 266.663757,1407.583252 267.005493,1412.281006 
	C235.899796,1396.865845 208.317047,1376.567017 187.366653,1348.288940 
	C158.847488,1309.794800 151.060928,1266.587891 159.434982,1219.991333 
	C164.941055,1189.353271 176.665588,1160.996582 191.681122,1133.925781 
	C211.655853,1097.914307 236.653671,1065.574951 264.685852,1035.111084 
z"></path>
<path fill="#058ED4" opacity="1.000000" stroke="none" d="
M1534.980225,443.558594 
	C1524.511475,454.265930 1514.732666,465.589172 1503.244629,474.774475 
	C1486.939209,487.811401 1469.998047,500.288910 1452.221313,511.201477 
	C1413.766846,534.807190 1372.179199,551.055786 1327.620483,558.835510 
	C1310.838013,561.765686 1293.760864,563.008362 1276.100586,564.795898 
	C1268.872192,551.841125 1263.328491,538.488831 1255.632446,526.520569 
	C1242.793335,506.554077 1228.576904,487.473236 1214.940186,468.019531 
	C1231.183228,468.679688 1247.455200,470.296997 1263.663330,469.805298 
	C1299.992554,468.703186 1335.031372,460.977814 1368.592651,446.744690 
	C1394.974854,435.556152 1419.182617,420.743866 1440.868530,402.172699 
	C1452.936646,391.837982 1463.617554,379.875671 1474.796021,368.521271 
	C1475.971924,367.326904 1476.284668,365.282806 1477.022949,363.256226 
	C1489.336792,378.762054 1501.954224,394.404449 1513.796265,410.613373 
	C1521.422241,421.051758 1527.909302,432.322296 1534.980225,443.558594 
z"></path>
<path fill="#0051A2" opacity="1.000000" stroke="none" d="
M513.021179,111.331795 
	C528.377258,111.276955 543.733337,111.222115 559.522400,111.644753 
	C559.657959,113.417847 559.165466,114.702576 559.092407,116.010712 
	C558.028687,135.066299 556.398254,154.117981 556.182617,173.185074 
	C555.983887,190.767990 557.120239,208.378616 558.041260,225.957504 
	C558.761353,239.700165 559.133972,253.558594 561.283691,267.108124 
	C565.521179,293.816559 570.113037,320.517578 575.968384,346.908844 
	C584.201111,384.015625 596.118774,420.100067 611.652405,454.795135 
	C622.314941,478.610565 634.485229,501.755219 646.192017,525.094116 
	C647.835632,528.370911 650.680908,531.044983 653.047058,534.461670 
	C653.074097,562.949707 653.023926,590.974121 652.633545,618.938721 
	C648.344788,613.827148 644.125488,608.962280 640.490845,603.694031 
	C613.200806,564.138550 590.218445,522.186157 571.058105,478.129303 
	C556.366760,444.348450 544.318054,409.629242 534.861511,374.044250 
	C524.912048,336.604248 517.031006,298.731354 513.995728,260.032593 
	C512.284180,238.210190 510.758301,216.345718 510.138184,194.472137 
	C509.351654,166.729172 509.796478,138.965973 513.021179,111.331795 
z"></path>
<path fill="#069A97" opacity="1.000000" stroke="none" d="
M978.001953,1409.839966 
	C953.103455,1415.885010 928.249329,1422.121216 903.289917,1427.903442 
	C888.246887,1431.388428 873.040283,1434.167725 857.469360,1436.780396 
	C857.021057,1401.800903 856.908630,1367.304810 857.035400,1332.809448 
	C857.121582,1309.341553 857.542725,1285.874878 858.155273,1262.252686 
	C881.853577,1256.537964 905.250183,1251.137817 928.554626,1245.365112 
	C945.433838,1241.184082 962.190735,1236.508911 978.978760,1232.471680 
	C978.636780,1235.846069 978.043579,1238.802612 978.040710,1241.759521 
	C977.986206,1297.786377 978.001343,1353.813110 978.001953,1409.839966 
z"></path>
<path fill="#02859F" opacity="1.000000" stroke="none" d="
M691.999634,1461.802368 
	C651.409729,1466.171753 610.683411,1468.081787 569.446167,1468.038086 
	C569.010315,1410.387695 569.006897,1353.276978 569.468384,1296.104980 
	C571.432190,1296.031006 572.932861,1296.062866 574.429504,1295.998657 
	C604.843079,1294.694702 635.258911,1293.440430 665.667419,1292.027100 
	C674.123779,1291.634155 682.557922,1290.762939 691.001465,1290.572876 
	C691.000427,1345.167358 690.985291,1399.300049 691.042542,1453.432739 
	C691.045532,1456.222900 691.666443,1459.012451 691.999634,1461.802368 
z"></path>
<path fill="#022459" opacity="1.000000" stroke="none" d="
M343.138672,1069.074585 
	C343.071259,1043.732910 343.003845,1018.391296 342.948578,992.591187 
	C349.775543,985.806702 356.919159,979.796265 363.347412,973.099121 
	C389.227478,946.136719 405.292786,914.117920 411.003540,877.175354 
	C417.138092,837.490906 411.295166,799.612610 392.467316,763.941467 
	C381.206482,742.606812 366.132721,724.363037 347.555847,709.028809 
	C344.398224,706.422363 342.767792,703.798706 342.836151,699.404541 
	C343.134277,680.249939 342.977509,661.088257 343.349701,641.551880 
	C344.514069,642.195374 345.476593,643.127747 346.090302,644.250671 
	C352.551392,656.073120 358.893646,667.960754 365.389374,679.763916 
	C384.258118,714.049927 405.177795,747.068604 428.476227,778.486450 
	C444.291382,799.813171 461.100403,820.410034 477.705017,841.140991 
	C485.273987,850.590820 493.196960,859.783020 501.373230,868.713196 
	C509.332825,877.406616 517.821167,885.615967 525.977417,894.361694 
	C525.451965,895.183411 525.108826,895.798889 524.589294,896.162415 
	C492.523041,918.602905 461.645874,942.540771 432.451172,968.643738 
	C408.458130,990.096069 385.815521,1012.827759 365.936462,1038.178223 
	C358.041962,1048.245361 350.720825,1058.762329 343.138672,1069.074585 
z"></path>
<path fill="#0076A1" opacity="1.000000" stroke="none" d="
M367.198578,1448.640625 
	C366.601837,1444.322754 363.486786,1443.460693 360.295593,1442.895264 
	C356.367767,1442.199341 354.907928,1440.206909 354.916412,1436.053345 
	C355.039154,1375.956787 355.025940,1315.859863 354.936279,1255.763184 
	C354.931030,1252.228882 355.904755,1250.000610 360.100830,1249.155518 
	C361.513489,1249.660645 362.286560,1250.253418 363.049011,1251.228516 
	C363.433655,1252.597168 363.828918,1253.583496 364.224152,1254.569824 
	C364.840790,1253.961548 365.457458,1253.353271 366.416687,1252.854126 
	C373.143250,1256.362549 379.409485,1260.008789 385.932068,1263.117065 
	C411.070038,1275.096558 437.793518,1281.950073 465.002502,1287.622681 
	C465.001556,1346.711182 465.001465,1405.341431 465.001373,1463.971558 
	C447.343903,1461.823853 429.623413,1460.088623 412.048279,1457.402222 
	C397.113403,1455.119263 382.346130,1451.739868 367.198578,1448.640625 
z"></path>
<path fill="#0059AA" opacity="1.000000" stroke="none" d="
M652.969910,533.998047 
	C650.680908,531.044983 647.835632,528.370911 646.192017,525.094116 
	C634.485229,501.755219 622.314941,478.610565 611.652405,454.795135 
	C596.118774,420.100067 584.201111,384.015625 575.968384,346.908844 
	C570.113037,320.517578 565.521179,293.816559 561.283691,267.108124 
	C559.133972,253.558594 558.761353,239.700165 558.041260,225.957504 
	C557.120239,208.378616 555.983887,190.767990 556.182617,173.185074 
	C556.398254,154.117981 558.028687,135.066299 559.092407,116.010712 
	C559.165466,114.702576 559.657959,113.417847 559.985107,111.726875 
	C576.706360,111.277740 593.398010,111.223961 610.549561,111.661781 
	C609.673035,139.664108 607.761292,167.163712 607.229065,194.689987 
	C606.938354,209.720810 608.532043,224.843658 610.088318,239.840714 
	C612.089172,259.121552 614.310242,278.417084 617.499268,297.528931 
	C623.425049,333.041595 633.104187,367.646362 645.432190,401.449677 
	C650.431335,415.157227 656.717102,428.395569 662.329102,442.178162 
	C662.020630,443.309021 661.745728,444.098602 661.588745,444.910919 
	C658.834534,459.164215 655.006653,473.317596 653.648438,487.703827 
	C652.202454,503.020050 653.097168,518.557312 652.969910,533.998047 
z"></path>
<path fill="#0CA495" opacity="1.000000" stroke="none" d="
M1191.001587,1160.039551 
	C1191.001099,1217.440552 1190.983887,1274.841553 1191.048462,1332.242554 
	C1191.051758,1335.189697 1191.757935,1338.135986 1192.234619,1341.581055 
	C1177.682495,1347.478760 1163.125122,1353.146973 1148.361084,1358.213379 
	C1127.275757,1365.449219 1106.039307,1372.244507 1084.453857,1378.785889 
	C1084.026855,1318.567139 1084.013428,1258.790527 1084.280518,1198.783447 
	C1103.250244,1191.822021 1121.946899,1185.111328 1140.626465,1178.354004 
	C1157.427734,1172.275879 1174.210571,1166.146362 1191.001587,1160.039551 
z"></path>
<path fill="#003F8C" opacity="1.000000" stroke="none" d="
M405.023132,111.319435 
	C413.711151,111.270332 422.399139,111.221230 431.547974,111.663483 
	C431.006042,126.213577 429.319031,140.263550 429.139099,154.332809 
	C428.730957,186.241730 428.305542,218.181030 431.965820,249.986404 
	C434.107422,268.595184 435.565186,287.301575 438.322052,305.816437 
	C443.121887,338.051483 450.147034,369.841644 458.798523,401.291443 
	C471.988037,449.237762 489.390961,495.595673 510.798523,540.429626 
	C526.301270,572.897156 543.760620,604.343750 564.151611,634.008118 
	C579.584961,656.460388 595.505798,678.614807 612.093079,700.223694 
	C623.495239,715.077820 636.377563,728.799255 648.713013,742.926819 
	C649.669495,744.022339 651.532410,744.326355 653.037476,745.463684 
	C653.059387,758.618835 653.017944,771.308655 652.628845,783.943115 
	C650.022583,782.253967 647.394226,780.954773 645.564270,778.932861 
	C631.744141,763.663147 617.482300,748.737427 604.514587,732.765625 
	C586.827393,710.980957 569.129639,689.070190 553.342712,665.913879 
	C536.406128,641.071411 520.594055,615.309631 506.288513,588.868469 
	C491.578491,561.679626 477.957764,533.725281 466.291504,505.114563 
	C454.250031,475.583649 443.943909,445.203552 435.088501,414.556396 
	C426.845703,386.029266 420.703461,356.815216 415.157043,327.614746 
	C410.863129,305.008453 408.442596,282.005341 406.072113,259.087311 
	C404.059418,239.628342 402.224609,220.037247 402.252655,200.507416 
	C402.295380,170.776825 404.015411,141.048645 405.023132,111.319435 
z"></path>
<path fill="#099F96" opacity="1.000000" stroke="none" d="
M1084.000000,1199.013916 
	C1084.013428,1258.790527 1084.026855,1318.567139 1084.058960,1378.837524 
	C1058.768311,1386.884399 1033.481445,1394.513550 1008.138550,1401.952148 
	C998.412964,1404.806885 988.559937,1407.227417 978.383423,1409.842896 
	C978.001343,1353.813110 977.986206,1297.786377 978.040710,1241.759521 
	C978.043579,1238.802612 978.636780,1235.846069 979.292542,1232.266846 
	C1000.081116,1225.405762 1020.560303,1219.256714 1040.974243,1212.898560 
	C1055.361938,1208.417358 1069.661255,1203.652344 1084.000000,1199.013916 
z"></path>
<path fill="#004A9D" opacity="1.000000" stroke="none" d="
M512.557190,111.250290 
	C509.796478,138.965973 509.351654,166.729172 510.138184,194.472137 
	C510.758301,216.345718 512.284180,238.210190 513.995728,260.032593 
	C517.031006,298.731354 524.912048,336.604248 534.861511,374.044250 
	C544.318054,409.629242 556.366760,444.348450 571.058105,478.129303 
	C590.218445,522.186157 613.200806,564.138550 640.490845,603.694031 
	C644.125488,608.962280 648.344788,613.827148 652.705688,619.402954 
	C653.070007,637.617737 653.021912,655.308289 652.635010,672.940063 
	C651.130920,671.980957 649.669495,671.294067 648.843933,670.148865 
	C632.910950,648.047180 616.541016,626.237183 601.298523,603.666443 
	C578.429810,569.802979 559.660400,533.633179 543.075745,496.292084 
	C525.533081,456.794037 511.657440,416.041534 500.922058,374.232086 
	C492.118073,339.944550 485.166748,305.235321 482.053497,269.940308 
	C479.722473,243.512878 477.610138,216.987808 477.290070,190.483398 
	C476.971649,164.112961 479.011444,137.714050 480.017151,111.327629 
	C490.709198,111.274681 501.401184,111.221733 512.557190,111.250290 
z"></path>
<path fill="#013C85" opacity="1.000000" stroke="none" d="
M404.558289,111.239876 
	C404.015411,141.048645 402.295380,170.776825 402.252655,200.507416 
	C402.224609,220.037247 404.059418,239.628342 406.072113,259.087311 
	C408.442596,282.005341 410.863129,305.008453 415.157043,327.614746 
	C420.703461,356.815216 426.845703,386.029266 435.088501,414.556396 
	C443.943909,445.203552 454.250031,475.583649 466.291504,505.114563 
	C477.957764,533.725281 491.578491,561.679626 506.288513,588.868469 
	C520.594055,615.309631 536.406128,641.071411 553.342712,665.913879 
	C569.129639,689.070190 586.827393,710.980957 604.514587,732.765625 
	C617.482300,748.737427 631.744141,763.663147 645.564270,778.932861 
	C647.394226,780.954773 650.022583,782.253967 652.688477,784.408936 
	C653.104187,794.146240 653.199524,803.364075 653.034729,812.577332 
	C653.007629,814.090454 651.837463,815.583069 650.890625,816.922852 
	C626.369995,793.666260 603.388794,769.432617 582.002380,743.664490 
	C559.034973,715.991394 537.766174,687.117859 518.239868,656.915161 
	C491.963104,616.271057 469.405151,573.680054 450.119781,529.312500 
	C431.430389,486.315796 416.412415,442.064484 404.991882,396.622040 
	C393.640472,351.454498 385.350616,305.718689 382.010162,259.213196 
	C380.274048,235.043411 378.388245,210.823074 378.255310,186.616333 
	C378.117676,161.556717 380.019623,136.485901 381.029480,111.419998 
	C388.717468,111.333435 396.405487,111.246872 404.558289,111.239876 
z"></path>
<path fill="#017DA1" opacity="1.000000" stroke="none" d="
M465.398560,1464.093506 
	C465.001465,1405.341431 465.001556,1346.711182 465.402893,1287.608276 
	C483.585205,1289.413696 501.318512,1292.229614 519.161194,1293.812744 
	C535.714539,1295.281616 552.384705,1295.434082 569.003479,1296.166138 
	C569.006897,1353.276978 569.010315,1410.387695 569.024170,1467.917358 
	C559.388062,1468.326172 549.728394,1468.637085 540.097534,1468.242310 
	C516.805725,1467.287720 493.527008,1466.011719 470.244568,1464.835205 
	C468.754974,1464.760010 467.278351,1464.428223 465.398560,1464.093506 
z"></path>
<path fill="#0172BF" opacity="1.000000" stroke="none" d="
M1308.042236,660.995667 
	C1328.941895,657.274414 1350.207275,654.924866 1370.646240,649.476135 
	C1394.841553,643.025879 1418.678833,634.812439 1442.029175,625.715210 
	C1473.749146,613.357239 1503.407837,596.690613 1531.033813,576.786804 
	C1546.901489,565.354553 1561.786743,552.559021 1577.124268,540.389771 
	C1578.150024,539.575928 1579.260010,538.868286 1580.671387,538.054382 
	C1582.977783,543.131165 1584.943604,548.264893 1587.021729,553.771179 
	C1588.701538,558.473938 1590.269165,562.804077 1591.651855,567.701416 
	C1594.293579,577.845459 1597.120239,587.422424 1599.601562,597.056519 
	C1597.948608,597.813049 1596.490356,598.325317 1595.355225,599.238953 
	C1560.382935,627.386841 1522.770020,651.263367 1481.947144,670.076172 
	C1444.961304,687.120789 1406.681641,700.287292 1366.788818,708.424011 
	C1350.742188,711.696960 1334.398193,713.512207 1318.089600,715.585754 
	C1317.493286,712.073914 1317.066040,708.954285 1316.488770,705.862549 
	C1313.695435,690.902771 1310.861694,675.950562 1308.042236,660.995667 
z"></path>
<path fill="#004393" opacity="1.000000" stroke="none" d="
M652.973999,744.998291 
	C651.532410,744.326355 649.669495,744.022339 648.713013,742.926819 
	C636.377563,728.799255 623.495239,715.077820 612.093079,700.223694 
	C595.505798,678.614807 579.584961,656.460388 564.151611,634.008118 
	C543.760620,604.343750 526.301270,572.897156 510.798523,540.429626 
	C489.390961,495.595673 471.988037,449.237762 458.798523,401.291443 
	C450.147034,369.841644 443.121887,338.051483 438.322052,305.816437 
	C435.565186,287.301575 434.107422,268.595184 431.965820,249.986404 
	C428.305542,218.181030 428.730957,186.241730 429.139099,154.332809 
	C429.319031,140.263550 431.006042,126.213577 432.011169,111.741745 
	C440.036621,111.277199 448.059692,111.225754 456.544495,111.691422 
	C456.340912,122.975090 455.172852,133.738297 455.100769,144.508820 
	C454.841492,183.267426 453.746887,222.098175 458.212799,260.688507 
	C461.033905,285.066315 464.700012,309.391266 469.144135,333.526855 
	C478.027283,381.770355 491.822784,428.686127 509.736542,474.356628 
	C523.310913,508.963928 538.992371,542.615479 557.540466,574.838989 
	C568.077271,593.144409 578.674011,611.526611 590.805542,628.775818 
	C607.615967,652.677795 625.815979,675.607727 643.637817,698.787170 
	C646.116882,702.011536 649.832642,704.285156 653.041748,707.463989 
	C653.063110,720.285461 653.018555,732.641846 652.973999,744.998291 
z"></path>
<path fill="#012F6F" opacity="1.000000" stroke="none" d="
M343.071381,533.994263 
	C343.039825,493.973358 343.008270,453.952484 343.358215,413.570801 
	C344.847168,415.923492 346.198029,418.565247 347.021576,421.362305 
	C351.626495,437.002258 355.654572,452.826324 360.707092,468.317657 
	C377.664612,520.310730 397.903809,570.993408 424.172577,619.037109 
	C437.650970,643.688110 451.634125,668.135193 466.792938,691.774353 
	C481.138824,714.145752 496.899078,735.655457 512.839417,756.943604 
	C523.870728,771.675781 536.171509,785.466736 548.087646,799.523438 
	C554.315674,806.870361 560.805908,814.007446 567.415039,821.015564 
	C575.975952,830.093445 584.756897,838.964478 593.503418,847.865417 
	C594.143616,848.516907 595.271240,848.689514 595.961243,849.355469 
	C585.233276,856.121887 574.716370,862.617554 563.838989,869.041626 
	C560.850891,867.006287 557.843079,865.392700 555.658142,863.021057 
	C543.055054,849.340454 530.316345,835.761963 518.257141,821.609070 
	C503.834045,804.681885 489.428009,787.674011 476.149780,769.855164 
	C460.959076,749.469727 446.274872,728.621521 432.728821,707.118774 
	C417.671600,683.217285 403.578796,658.658752 390.096954,633.826660 
	C373.250946,602.798035 358.988831,570.500549 345.987335,537.662109 
	C345.437134,536.272461 344.062134,535.209473 343.071381,533.994263 
z"></path>
<path fill="#048AD1" opacity="1.000000" stroke="none" d="
M952.549316,112.040337 
	C951.498413,122.428642 949.901306,132.740463 948.497498,143.078522 
	C945.765015,163.202286 944.543701,183.431763 946.991577,203.628769 
	C949.062561,220.715805 951.304077,237.857132 954.904846,254.667099 
	C961.038330,283.300232 972.553101,309.993103 986.934448,335.458466 
	C987.410950,336.302185 987.632385,337.289917 987.575317,338.620544 
	C958.397644,333.268677 929.265259,330.516510 900.001831,328.444122 
	C899.582458,326.282227 899.314636,324.460236 898.731567,322.745422 
	C895.575256,313.462036 892.212097,304.247437 889.156677,294.931549 
	C878.153992,261.384735 873.457031,226.744110 872.136230,191.632019 
	C871.650146,178.709778 872.575073,165.726028 873.083191,152.779221 
	C873.270996,147.993927 874.079041,143.230453 874.658508,138.463623 
	C875.758057,129.418076 876.896912,120.377312 878.019409,111.334557 
	C899.556946,111.546669 921.094482,111.762360 942.632141,111.966957 
	C945.784607,111.996910 948.937561,111.974098 952.549316,112.040337 
z"></path>
<path fill="#089890" opacity="1.000000" stroke="none" d="
M126.739418,887.100586 
	C117.500175,862.740112 117.577515,838.184631 125.903603,813.206299 
	C195.549118,812.960632 264.488861,812.988831 333.428589,812.952698 
	C335.366241,812.951721 337.303528,812.263123 339.240997,811.895142 
	C341.133514,819.767029 344.106232,827.558716 344.697937,835.527100 
	C346.005676,853.137939 345.536133,870.767578 337.893982,887.771973 
	C270.323730,888.016479 203.473099,888.020935 136.622513,887.961853 
	C133.327896,887.958923 130.033768,887.400452 126.739418,887.100586 
z"></path>
<path fill="#038D9C" opacity="1.000000" stroke="none" d="
M692.419922,1461.842529 
	C691.666443,1459.012451 691.045532,1456.222900 691.042542,1453.432739 
	C690.985291,1399.300049 691.000427,1345.167358 691.414429,1290.475830 
	C693.624390,1289.614624 695.413086,1289.254395 697.218018,1289.019043 
	C714.499146,1286.766235 731.794006,1284.615479 749.062256,1282.268311 
	C760.727661,1280.682739 772.356628,1278.828613 784.001221,1277.557373 
	C784.000366,1332.865356 783.973145,1387.710571 784.090454,1442.555542 
	C784.095581,1444.969238 785.422302,1447.380127 786.133362,1449.792236 
	C764.107422,1452.854126 742.092407,1455.997314 720.050354,1458.938477 
	C711.010315,1460.144653 701.911987,1460.914307 692.419922,1461.842529 
z"></path>
<path fill="#022A64" opacity="1.000000" stroke="none" d="
M343.023926,534.461426 
	C344.062134,535.209473 345.437134,536.272461 345.987335,537.662109 
	C358.988831,570.500549 373.250946,602.798035 390.096954,633.826660 
	C403.578796,658.658752 417.671600,683.217285 432.728821,707.118774 
	C446.274872,728.621521 460.959076,749.469727 476.149780,769.855164 
	C489.428009,787.674011 503.834045,804.681885 518.257141,821.609070 
	C530.316345,835.761963 543.055054,849.340454 555.658142,863.021057 
	C557.843079,865.392700 560.850891,867.006287 563.630737,869.312134 
	C559.261780,872.707642 554.795837,875.846924 550.207397,878.795410 
	C542.203857,883.938171 534.124756,888.963379 526.077332,894.037842 
	C517.821167,885.615967 509.332825,877.406616 501.373230,868.713196 
	C493.196960,859.783020 485.273987,850.590820 477.705017,841.140991 
	C461.100403,820.410034 444.291382,799.813171 428.476227,778.486450 
	C405.177795,747.068604 384.258118,714.049927 365.389374,679.763916 
	C358.893646,667.960754 352.551392,656.073120 346.090302,644.250671 
	C345.476593,643.127747 344.514069,642.195374 343.387848,641.084045 
	C343.033661,605.638550 343.005096,570.283508 343.023926,534.461426 
z"></path>
<path fill="#013980" opacity="1.000000" stroke="none" d="
M380.630798,111.368484 
	C380.019623,136.485901 378.117676,161.556717 378.255310,186.616333 
	C378.388245,210.823074 380.274048,235.043411 382.010162,259.213196 
	C385.350616,305.718689 393.640472,351.454498 404.991882,396.622040 
	C416.412415,442.064484 431.430389,486.315796 450.119781,529.312500 
	C469.405151,573.680054 491.963104,616.271057 518.239868,656.915161 
	C537.766174,687.117859 559.034973,715.991394 582.002380,743.664490 
	C603.388794,769.432617 626.369995,793.666260 650.648438,817.181396 
	C644.836975,820.851196 638.962830,824.100037 632.933167,827.030273 
	C627.631409,821.754089 622.311584,816.962463 617.377441,811.802002 
	C608.879272,802.914062 600.335571,794.042114 592.322876,784.723267 
	C576.197571,765.969727 559.877380,747.343872 544.602173,727.907288 
	C509.436523,683.161560 479.758057,634.856201 454.152679,584.078247 
	C445.916748,567.745605 438.499298,550.983093 431.159760,534.219116 
	C413.368530,493.582977 398.682251,451.782440 388.197968,408.714203 
	C380.583191,377.433502 374.288605,345.761963 369.053955,313.993042 
	C364.774841,288.023010 361.985077,261.712799 360.283722,235.440186 
	C358.672699,210.562317 358.923340,185.533279 359.155457,160.578171 
	C359.294037,145.677139 360.972412,130.790451 361.958588,115.897308 
	C368.049774,114.370537 374.140930,112.843758 380.630798,111.368484 
z"></path>
<path fill="#0061B1" opacity="1.000000" stroke="none" d="
M662.417480,441.847412 
	C656.717102,428.395569 650.431335,415.157227 645.432190,401.449677 
	C633.104187,367.646362 623.425049,333.041595 617.499268,297.528931 
	C614.310242,278.417084 612.089172,259.121552 610.088318,239.840714 
	C608.532043,224.843658 606.938354,209.720810 607.229065,194.689987 
	C607.761292,167.163712 609.673035,139.664108 611.012085,111.745117 
	C627.038879,111.280457 643.063049,111.224068 659.548645,111.665901 
	C658.673340,129.357864 656.680969,146.531570 656.154663,163.750092 
	C655.377869,189.170471 655.754761,214.628174 659.013855,239.919464 
	C661.344788,258.008240 662.963928,276.279602 666.789795,294.063080 
	C672.168945,319.066315 679.084717,343.751343 685.820496,368.442322 
	C687.663635,375.198517 691.212830,381.489258 693.856201,388.304749 
	C679.768616,404.285309 669.613281,422.195801 662.417480,441.847412 
z"></path>
<path fill="#013477" opacity="1.000000" stroke="none" d="
M596.172302,849.084717 
	C595.271240,848.689514 594.143616,848.516907 593.503418,847.865417 
	C584.756897,838.964478 575.975952,830.093445 567.415039,821.015564 
	C560.805908,814.007446 554.315674,806.870361 548.087646,799.523438 
	C536.171509,785.466736 523.870728,771.675781 512.839417,756.943604 
	C496.899078,735.655457 481.138824,714.145752 466.792938,691.774353 
	C451.634125,668.135193 437.650970,643.688110 424.172577,619.037109 
	C397.903809,570.993408 377.664612,520.310730 360.707092,468.317657 
	C355.654572,452.826324 351.626495,437.002258 347.021576,421.362305 
	C346.198029,418.565247 344.847168,415.923492 343.407532,413.104187 
	C343.042358,363.310669 343.009369,313.622955 343.383362,263.606781 
	C344.176178,263.971039 344.811432,264.629608 344.911591,265.361420 
	C347.946503,287.535828 350.631683,309.762390 353.982605,331.888275 
	C360.418671,374.385284 370.891144,415.958313 383.854950,456.901703 
	C394.965210,491.991150 408.073700,526.308838 423.275482,559.867737 
	C437.236053,590.686584 452.620697,620.746826 470.254211,649.569397 
	C483.959625,671.971252 498.412994,693.961548 513.472778,715.477600 
	C534.059692,744.890198 556.850342,772.607300 581.368835,798.868591 
	C587.834778,805.794128 594.176819,812.841919 600.819763,819.593506 
	C606.390503,825.255188 612.316528,830.567139 617.859070,836.288818 
	C610.479370,840.724060 603.325806,844.904419 596.172302,849.084717 
z"></path>
<path fill="#0069B8" opacity="1.000000" stroke="none" d="
M693.979126,387.993622 
	C691.212830,381.489258 687.663635,375.198517 685.820496,368.442322 
	C679.084717,343.751343 672.168945,319.066315 666.789795,294.063080 
	C662.963928,276.279602 661.344788,258.008240 659.013855,239.919464 
	C655.754761,214.628174 655.377869,189.170471 656.154663,163.750092 
	C656.680969,146.531570 658.673340,129.357864 660.011108,111.749046 
	C677.703979,111.277718 695.395752,111.221466 713.548889,111.686905 
	C713.947632,115.035622 714.018494,117.872971 713.800415,120.687943 
	C712.572083,136.543976 710.731567,152.375290 710.166504,168.253021 
	C709.688721,181.676605 710.187988,195.184235 711.106812,208.596298 
	C712.363281,226.936829 713.674438,245.331284 716.313232,263.506470 
	C720.733948,293.954834 727.796753,323.863464 737.766357,353.216980 
	C721.171021,362.646515 706.844849,374.398621 693.979126,387.993622 
z"></path>
<path fill="#004798" opacity="1.000000" stroke="none" d="
M652.975952,706.998901 
	C649.832642,704.285156 646.116882,702.011536 643.637817,698.787170 
	C625.815979,675.607727 607.615967,652.677795 590.805542,628.775818 
	C578.674011,611.526611 568.077271,593.144409 557.540466,574.838989 
	C538.992371,542.615479 523.310913,508.963928 509.736542,474.356628 
	C491.822784,428.686127 478.027283,381.770355 469.144135,333.526855 
	C464.700012,309.391266 461.033905,285.066315 458.212799,260.688507 
	C453.746887,222.098175 454.841492,183.267426 455.100769,144.508820 
	C455.172852,133.738297 456.340912,122.975090 457.007416,111.769173 
	C464.368774,111.275787 471.728851,111.221764 479.553040,111.247681 
	C479.011444,137.714050 476.971649,164.112961 477.290070,190.483398 
	C477.610138,216.987808 479.722473,243.512878 482.053497,269.940308 
	C485.166748,305.235321 492.118073,339.944550 500.922058,374.232086 
	C511.657440,416.041534 525.533081,456.794037 543.075745,496.292084 
	C559.660400,533.633179 578.429810,569.802979 601.298523,603.666443 
	C616.541016,626.237183 632.910950,648.047180 648.843933,670.148865 
	C649.669495,671.294067 651.130920,671.980957 652.703247,673.404785 
	C653.065491,684.951904 653.020752,695.975403 652.975952,706.998901 
z"></path>
<path fill="#01367C" opacity="1.000000" stroke="none" d="
M618.085266,836.033936 
	C612.316528,830.567139 606.390503,825.255188 600.819763,819.593506 
	C594.176819,812.841919 587.834778,805.794128 581.368835,798.868591 
	C556.850342,772.607300 534.059692,744.890198 513.472778,715.477600 
	C498.412994,693.961548 483.959625,671.971252 470.254211,649.569397 
	C452.620697,620.746826 437.236053,590.686584 423.275482,559.867737 
	C408.073700,526.308838 394.965210,491.991150 383.854950,456.901703 
	C370.891144,415.958313 360.418671,374.385284 353.982605,331.888275 
	C350.631683,309.762390 347.946503,287.535828 344.911591,265.361420 
	C344.811432,264.629608 344.176178,263.971039 343.434753,263.140686 
	C343.056885,224.069641 342.666992,185.131012 343.220856,146.205826 
	C343.403473,133.372849 349.088684,122.441711 361.638855,116.030197 
	C360.972412,130.790451 359.294037,145.677139 359.155457,160.578171 
	C358.923340,185.533279 358.672699,210.562317 360.283722,235.440186 
	C361.985077,261.712799 364.774841,288.023010 369.053955,313.993042 
	C374.288605,345.761963 380.583191,377.433502 388.197968,408.714203 
	C398.682251,451.782440 413.368530,493.582977 431.159760,534.219116 
	C438.499298,550.983093 445.916748,567.745605 454.152679,584.078247 
	C479.758057,634.856201 509.436523,683.161560 544.602173,727.907288 
	C559.877380,747.343872 576.197571,765.969727 592.322876,784.723267 
	C600.335571,794.042114 608.879272,802.914062 617.377441,811.802002 
	C622.311584,816.962463 627.631409,821.754089 632.718750,827.270203 
	C627.801697,830.563782 622.943481,833.298889 618.085266,836.033936 
z"></path>
<path fill="#0172BF" opacity="1.000000" stroke="none" d="
M737.992920,352.962097 
	C727.796753,323.863464 720.733948,293.954834 716.313232,263.506470 
	C713.674438,245.331284 712.363281,226.936829 711.106812,208.596298 
	C710.187988,195.184235 709.688721,181.676605 710.166504,168.253021 
	C710.731567,152.375290 712.572083,136.543976 713.800415,120.687943 
	C714.018494,117.872971 713.947632,115.035622 714.011108,111.771187 
	C732.370483,111.277626 750.728882,111.221481 769.548950,111.676147 
	C769.950806,114.016663 769.983459,115.854820 769.816956,117.674744 
	C768.230957,135.006927 765.460266,152.325012 765.294189,169.668823 
	C765.089539,191.050140 766.209839,212.533325 768.278748,233.824661 
	C770.865906,260.450439 775.860840,286.765167 783.396362,312.504089 
	C785.437378,319.475708 788.011292,326.291290 790.040283,333.430786 
	C771.573608,337.647125 754.464233,344.448303 737.992920,352.962097 
z"></path>
<path fill="#049499" opacity="1.000000" stroke="none" d="
M786.504333,1449.822388 
	C785.422302,1447.380127 784.095581,1444.969238 784.090454,1442.555542 
	C783.973145,1387.710571 784.000366,1332.865356 784.376343,1277.420898 
	C809.106140,1272.017090 833.460083,1267.212402 857.814026,1262.407715 
	C857.542725,1285.874878 857.121582,1309.341553 857.035400,1332.809448 
	C856.908630,1367.304810 857.021057,1401.800903 857.046448,1436.786255 
	C837.777588,1440.836792 818.497620,1444.418823 799.206970,1447.942017 
	C795.116516,1448.689087 790.986877,1449.221313 786.504333,1449.822388 
z"></path>
<path fill="#0CA391" opacity="1.000000" stroke="none" d="
M339.196411,811.516968 
	C337.303528,812.263123 335.366241,812.951721 333.428589,812.952698 
	C264.488861,812.988831 195.549118,812.960632 126.112534,812.913208 
	C136.140350,780.343323 157.721329,757.642212 188.790604,744.415405 
	C230.225250,726.775879 279.726318,735.316040 312.122162,768.358276 
	C324.113922,780.589233 333.568512,794.714539 339.196411,811.516968 
z"></path>
<path fill="#027AC5" opacity="1.000000" stroke="none" d="
M790.340637,333.178497 
	C788.011292,326.291290 785.437378,319.475708 783.396362,312.504089 
	C775.860840,286.765167 770.865906,260.450439 768.278748,233.824661 
	C766.209839,212.533325 765.089539,191.050140 765.294189,169.668823 
	C765.460266,152.325012 768.230957,135.006927 769.816956,117.674744 
	C769.983459,115.854820 769.950806,114.016663 770.010986,111.761246 
	C788.036011,111.278046 806.060486,111.220581 824.546936,111.668365 
	C824.920715,113.830666 824.909607,115.496017 824.732300,117.143478 
	C823.174805,131.616882 820.746948,146.055176 820.195740,160.565353 
	C819.238281,185.769714 819.694641,211.015289 823.106140,236.084534 
	C826.985107,264.589355 833.088379,292.592499 842.392639,319.861420 
	C843.287537,322.484070 843.476990,325.347473 843.557373,328.200806 
	C825.527405,329.927826 807.934021,331.553162 790.340637,333.178497 
z"></path>
<path fill="#0382CB" opacity="1.000000" stroke="none" d="
M843.993958,328.099091 
	C843.476990,325.347473 843.287537,322.484070 842.392639,319.861420 
	C833.088379,292.592499 826.985107,264.589355 823.106140,236.084534 
	C819.694641,211.015289 819.238281,185.769714 820.195740,160.565353 
	C820.746948,146.055176 823.174805,131.616882 824.732300,117.143478 
	C824.909607,115.496017 824.920715,113.830666 825.008911,111.753456 
	C842.370544,111.276054 859.732056,111.218803 877.556519,111.248055 
	C876.896912,120.377312 875.758057,129.418076 874.658508,138.463623 
	C874.079041,143.230453 873.270996,147.993927 873.083191,152.779221 
	C872.575073,165.726028 871.650146,178.709778 872.136230,191.632019 
	C873.457031,226.744110 878.153992,261.384735 889.156677,294.931549 
	C892.212097,304.247437 895.575256,313.462036 898.731567,322.745422 
	C899.314636,324.460236 899.582458,326.282227 899.540771,328.515106 
	C880.721802,328.683319 862.357849,328.391205 843.993958,328.099091 
z"></path>
<path fill="#048C8E" opacity="1.000000" stroke="none" d="
M126.787674,887.474854 
	C130.033768,887.400452 133.327896,887.958923 136.622513,887.961853 
	C203.473099,888.020935 270.323730,888.016479 337.652100,888.037842 
	C332.410706,905.208862 322.151886,919.361694 309.083069,931.593994 
	C251.053726,985.909241 152.955338,962.348389 126.787674,887.474854 
z"></path>
<path fill="#06080B" opacity="1.000000" stroke="none" d="
M843.557373,328.200806 
	C862.357849,328.391205 880.721802,328.683319 899.546753,328.904480 
	C929.265259,330.516510 958.397644,333.268677 987.591736,338.985657 
	C1000.974609,342.295105 1014.041138,345.315186 1026.895386,349.063385 
	C1075.170410,363.140076 1119.713501,384.778656 1159.542969,415.678223 
	C1179.532471,431.186005 1197.941650,448.407959 1214.645508,467.865479 
	C1228.576904,487.473236 1242.793335,506.554077 1255.632446,526.520569 
	C1263.328491,538.488831 1268.872192,551.841125 1275.633301,564.805542 
	C1281.008911,578.173035 1286.728394,591.111572 1291.115967,604.487061 
	C1297.164917,622.927307 1302.208008,641.697510 1307.862183,660.661011 
	C1310.861694,675.950562 1313.695435,690.902771 1316.488770,705.862549 
	C1317.066040,708.954285 1317.493286,712.073914 1318.056396,715.998169 
	C1320.079834,734.210571 1322.036621,751.605469 1323.931885,769.460999 
	C1324.618042,793.610107 1325.365601,817.298645 1326.037720,841.451416 
	C1325.958618,864.579590 1325.954956,887.243469 1325.627686,909.825195 
	C1323.474365,908.308044 1321.558105,906.969543 1319.827393,905.423584 
	C1295.580688,883.766418 1271.077026,862.413757 1242.651978,846.247253 
	C1220.090820,833.415771 1197.592773,820.425659 1174.555542,808.492615 
	C1150.607666,796.087830 1124.636841,793.155029 1098.208496,797.001221 
	C1069.082397,801.240112 1040.129639,806.663513 1011.090515,811.506409 
	C993.389709,814.458313 975.680054,817.361572 957.952759,820.148987 
	C944.982727,822.188416 931.977478,824.003662 918.533325,825.889160 
	C907.634827,826.647095 897.203369,827.782776 886.744751,828.157043 
	C855.173584,829.286804 823.591797,830.120605 791.984253,830.628784 
	C791.797668,823.017395 791.797668,823.013062 784.739807,823.003845 
	C779.434204,822.996887 774.117004,823.220093 768.826355,822.938416 
	C764.086792,822.686035 762.425842,824.666687 763.156860,829.360107 
	C763.092773,829.577637 763.038025,830.027954 762.569336,830.049438 
	C741.520691,828.795410 720.936096,827.587280 700.363708,826.199158 
	C694.909912,825.831177 690.094116,826.375427 685.311218,829.702332 
	C664.285034,844.327881 642.791016,858.287842 621.917542,873.123474 
	C607.854187,883.118896 594.543945,894.173828 580.569946,904.867065 
	C572.422546,911.451782 564.520691,917.828918 556.795166,924.412842 
	C522.477600,953.658936 490.460724,985.144287 463.928650,1021.783447 
	C443.030975,1050.641968 425.659668,1081.179932 421.623047,1117.532227 
	C419.421112,1137.361938 423.049713,1156.027710 433.496063,1173.120728 
	C447.134033,1195.436279 468.017303,1208.894531 491.355499,1218.821167 
	C531.502319,1235.896851 574.113831,1240.881592 617.164368,1242.782593 
	C635.125549,1243.575806 653.154297,1243.117432 671.145813,1242.828125 
	C680.104736,1242.684082 689.049072,1241.637817 698.459229,1241.025146 
	C702.065979,1240.910400 705.229675,1240.926514 708.358459,1240.604248 
	C725.980957,1238.788696 743.616089,1237.067139 761.204224,1234.957275 
	C771.848999,1233.680176 782.416565,1231.758789 793.451660,1230.127319 
	C795.046265,1230.042358 796.229675,1230.071045 797.366638,1229.854736 
	C824.463989,1224.702759 851.617065,1219.818359 878.627747,1214.244507 
	C895.861816,1210.688110 912.883789,1206.103882 930.395142,1201.963013 
	C964.221436,1192.552612 997.737305,1183.445312 1031.051025,1173.650146 
	C1048.566772,1168.500122 1065.729004,1162.147095 1083.435303,1156.267090 
	C1133.780518,1139.378662 1182.791992,1120.099487 1231.242065,1099.360474 
	C1241.150513,1095.119263 1251.116943,1091.013184 1261.208618,1087.168945 
	C1262.905029,1087.192871 1264.573364,1087.171631 1265.974976,1086.549561 
	C1281.171753,1079.804810 1296.371460,1073.063354 1311.484375,1066.133545 
	C1349.927246,1048.506226 1386.910522,1028.107666 1423.294189,1006.619934 
	C1436.445068,998.853210 1449.165527,990.357605 1462.415039,982.087402 
	C1486.854980,964.780457 1511.134766,947.815552 1535.019531,930.311462 
	C1556.761719,914.377686 1577.992188,897.746887 1599.650879,881.696777 
	C1603.677734,878.712708 1608.666626,877.027344 1614.160522,874.265625 
	C1614.576660,863.170288 1615.049683,850.555786 1615.620117,837.486511 
	C1616.494263,818.743408 1617.271973,800.455139 1618.047485,782.166748 
	C1618.257812,777.205261 1618.541870,772.245239 1618.650757,767.281494 
	C1618.872314,757.172668 1618.997437,747.061768 1619.222412,736.490112 
	C1618.457275,720.167969 1618.011108,704.275452 1616.680054,688.457397 
	C1615.709229,676.920105 1613.571899,665.480896 1611.981812,653.583130 
	C1611.025146,648.675964 1610.023560,644.187439 1609.060913,639.690552 
	C1606.015015,625.461853 1602.983887,611.230042 1599.947021,596.999390 
	C1597.120239,587.422424 1594.293579,577.845459 1591.724487,568.052002 
	C1634.228516,572.676880 1675.662231,580.677856 1714.040039,600.073181 
	C1733.714478,610.016235 1751.333984,622.693115 1764.343994,640.857300 
	C1775.852173,656.924744 1781.700928,674.634094 1782.243042,694.742615 
	C1783.124634,727.433105 1771.223267,755.806030 1755.264160,783.040833 
	C1741.667603,806.243469 1725.171753,827.323486 1706.677246,846.844482 
	C1702.906250,850.824707 1699.283325,854.945190 1695.388184,859.284119 
	C1665.044922,889.981384 1632.762451,917.957275 1598.145508,943.119751 
	C1574.903809,960.013855 1550.958008,975.939575 1527.142578,992.577148 
	C1509.505615,1003.454834 1492.409058,1014.701782 1474.527954,1024.520264 
	C1435.693481,1045.844360 1396.458374,1066.438965 1357.174927,1087.599609 
	C1340.404175,1095.569458 1324.028320,1103.698120 1307.250000,1110.887207 
	C1268.792847,1127.364990 1230.139160,1143.384155 1191.283447,1159.814575 
	C1174.210571,1166.146362 1157.427734,1172.275879 1140.626465,1178.354004 
	C1121.946899,1185.111328 1103.250244,1191.822021 1084.280518,1198.783447 
	C1069.661255,1203.652344 1055.361938,1208.417358 1040.974243,1212.898560 
	C1020.560303,1219.256714 1000.081116,1225.405762 979.316040,1231.849121 
	C962.190735,1236.508911 945.433838,1241.184082 928.554626,1245.365112 
	C905.250183,1251.137817 881.853577,1256.537964 858.155273,1262.252686 
	C833.460083,1267.212402 809.106140,1272.017090 784.377075,1276.958252 
	C772.356628,1278.828613 760.727661,1280.682739 749.062256,1282.268311 
	C731.794006,1284.615479 714.499146,1286.766235 697.218018,1289.019043 
	C695.413086,1289.254395 693.624390,1289.614624 691.415222,1290.013916 
	C682.557922,1290.762939 674.123779,1291.634155 665.667419,1292.027100 
	C635.258911,1293.440430 604.843079,1294.694702 574.429504,1295.998657 
	C572.932861,1296.062866 571.432190,1296.031006 569.468384,1296.104980 
	C552.384705,1295.434082 535.714539,1295.281616 519.161194,1293.812744 
	C501.318512,1292.229614 483.585205,1289.413696 465.403778,1287.149902 
	C437.793518,1281.950073 411.070038,1275.096558 385.932068,1263.117065 
	C379.409485,1260.008789 373.143250,1256.362549 366.246887,1252.602783 
	C364.842896,1251.776978 363.951233,1251.311646 363.059631,1250.846313 
	C362.286560,1250.253418 361.513489,1249.660645 360.451538,1248.999512 
	C348.196869,1239.851318 336.782074,1230.208130 328.205078,1217.664551 
	C314.394897,1197.468018 309.121948,1175.215332 311.688568,1150.910645 
	C314.639526,1122.966431 325.836853,1098.154541 340.056915,1074.428101 
	C340.997437,1072.858765 341.928131,1071.283447 343.001038,1069.392822 
	C350.720825,1058.762329 358.041962,1048.245361 365.936462,1038.178223 
	C385.815521,1012.827759 408.458130,990.096069 432.451172,968.643738 
	C461.645874,942.540771 492.523041,918.602905 524.589294,896.162415 
	C525.108826,895.798889 525.451965,895.183411 525.977417,894.361694 
	C534.124756,888.963379 542.203857,883.938171 550.207397,878.795410 
	C554.795837,875.846924 559.261780,872.707642 563.991211,869.383789 
	C574.716370,862.617554 585.233276,856.121887 595.961243,849.355469 
	C603.325806,844.904419 610.479370,840.724060 617.859070,836.288879 
	C622.943481,833.298889 627.801697,830.563782 632.874268,827.588745 
	C638.962830,824.100037 644.836975,820.851196 650.953369,817.343750 
	C651.837463,815.583069 653.007629,814.090454 653.034729,812.577332 
	C653.199524,803.364075 653.104187,794.146240 653.036133,784.464172 
	C653.017944,771.308655 653.059387,758.618835 653.037415,745.463684 
	C653.018555,732.641846 653.063110,720.285461 653.041748,707.463989 
	C653.020752,695.975403 653.065491,684.951904 653.041992,673.463623 
	C653.021912,655.308289 653.070007,637.617737 653.045898,619.462891 
	C653.023926,590.974121 653.074097,562.949707 653.047058,534.461670 
	C653.097168,518.557312 652.202454,503.020050 653.648438,487.703827 
	C655.006653,473.317596 658.834534,459.164215 661.588745,444.910919 
	C661.745728,444.098602 662.020630,443.309021 662.329102,442.178162 
	C669.613281,422.195801 679.768616,404.285309 693.856201,388.304749 
	C706.844849,374.398621 721.171021,362.646515 737.766357,353.216980 
	C754.464233,344.448303 771.573608,337.647125 790.040283,333.430786 
	C807.934021,331.553162 825.527405,329.927826 843.557373,328.200806 
M1067.684937,707.726013 
	C1089.160645,682.994324 1102.454590,654.542480 1106.893921,621.065857 
	C1107.275513,616.654236 1107.820801,612.249756 1108.012329,607.829895 
	C1109.296753,578.195618 1103.671509,550.075806 1089.170776,523.191345 
	C1081.224121,511.865509 1074.441650,499.461761 1065.127075,489.402588 
	C1027.190796,448.433411 979.726929,431.620911 924.403076,437.313110 
	C901.790283,439.639679 880.631165,447.109955 861.124817,458.875580 
	C834.634460,474.853851 813.591675,496.057312 799.121277,524.361145 
	C783.223206,555.123718 777.760925,587.683716 782.227783,622.770020 
	C783.152710,627.654663 783.872070,632.588928 785.036682,637.415710 
	C791.453796,664.011292 803.304749,687.799988 822.143005,708.687012 
	C858.907837,748.288208 904.046875,766.951965 958.186462,763.031250 
	C975.243347,761.796082 991.665161,757.785950 1007.409119,751.133606 
	C1030.585449,741.340881 1050.797852,727.392395 1067.684937,707.726013 
z"></path>
<path fill="#00709F" opacity="1.000000" stroke="none" d="
M363.048981,1251.228516 
	C363.951233,1251.311646 364.842896,1251.776978 365.904358,1252.493530 
	C365.457458,1253.353271 364.840790,1253.961548 364.224152,1254.569824 
	C363.828918,1253.583496 363.433655,1252.597168 363.048981,1251.228516 
z"></path>
<path fill="#006BBA" opacity="1.000000" stroke="none" d="
M1323.993408,769.000366 
	C1322.036621,751.605469 1320.079834,734.210571 1318.156250,716.403259 
	C1334.398193,713.512207 1350.742188,711.696960 1366.788818,708.424011 
	C1406.681641,700.287292 1444.961304,687.120789 1481.947144,670.076172 
	C1522.770020,651.263367 1560.382935,627.386841 1595.355225,599.238953 
	C1596.490356,598.325317 1597.948608,597.813049 1599.601562,597.056519 
	C1602.983887,611.230042 1606.015015,625.461853 1609.060913,639.690552 
	C1610.023560,644.187439 1611.025146,648.675964 1611.635498,653.640625 
	C1605.247437,658.236938 1599.211792,662.330627 1593.221924,666.490173 
	C1563.333862,687.244995 1531.865601,705.179810 1498.703247,720.208069 
	C1468.754639,733.780029 1438.041504,745.357788 1406.096680,752.932312 
	C1378.983276,759.361328 1351.380005,763.723572 1323.993408,769.000366 
z"></path>
<path fill="#054D8D" opacity="1.000000" stroke="none" d="
M1261.056641,1086.844727 
	C1251.116943,1091.013184 1241.150513,1095.119263 1231.242065,1099.360474 
	C1182.791992,1120.099487 1133.780518,1139.378662 1083.413330,1155.860596 
	C1082.254150,1153.513184 1081.682007,1151.410889 1080.720825,1149.504883 
	C1067.067505,1122.431641 1053.324341,1095.403809 1039.676147,1068.328125 
	C1014.551331,1018.484619 989.448730,968.629883 964.388611,918.753845 
	C949.948730,890.014893 935.593567,861.233276 921.261719,832.440186 
	C920.244019,830.395691 919.733948,828.098511 918.987915,825.918762 
	C931.977478,824.003662 944.982727,822.188416 957.952759,820.148987 
	C975.680054,817.361572 993.389709,814.458313 1011.090515,811.506409 
	C1040.129639,806.663513 1069.082397,801.240112 1098.208496,797.001221 
	C1124.636841,793.155029 1150.607666,796.087830 1174.555542,808.492615 
	C1197.592773,820.425659 1220.090820,833.415771 1242.651978,846.247253 
	C1271.077026,862.413757 1295.580688,883.766418 1319.827393,905.423584 
	C1321.558105,906.969543 1323.474365,908.308044 1325.636963,910.243164 
	C1325.922485,911.298218 1325.875366,911.853027 1325.633545,912.671021 
	C1322.305298,925.257935 1319.171509,937.581787 1315.884277,950.255676 
	C1309.823364,969.077026 1303.915771,987.548279 1297.947510,1006.381714 
	C1287.358398,1031.294312 1276.888794,1055.870239 1266.210083,1080.355225 
	C1265.142944,1082.802124 1262.804810,1084.694824 1261.056641,1086.844727 
M1133.998413,824.983276 
	C1133.980957,823.155212 1134.186646,821.292053 1133.904907,819.505615 
	C1132.999390,813.761169 1130.432007,809.165100 1124.598022,807.046570 
	C1118.819580,804.947937 1114.182251,806.350037 1109.676025,810.640015 
	C1104.878174,815.207703 1106.240479,820.664368 1106.086670,826.880798 
	C1106.486450,830.992310 1106.886230,835.103760 1107.278809,840.090454 
	C1107.507324,850.715271 1107.735718,861.340149 1107.911133,872.839661 
	C1106.371704,889.992798 1105.112671,907.177429 1103.190674,924.287598 
	C1101.976318,935.099243 1099.250122,945.751648 1098.256104,956.572327 
	C1097.828613,961.227844 1096.456299,962.653992 1092.231934,963.561462 
	C1057.685059,970.982666 1032.171387,1010.116028 1042.755981,1046.625244 
	C1050.705811,1074.046143 1074.999756,1094.966553 1103.268555,1096.873047 
	C1146.928345,1099.817261 1183.680786,1061.776855 1174.650391,1015.744751 
	C1169.969238,991.882812 1155.342041,975.342529 1132.760742,966.041748 
	C1130.530151,965.122925 1128.244873,964.337219 1126.406860,963.648010 
	C1128.324951,948.220276 1130.427734,933.388916 1131.948730,918.498108 
	C1133.524292,903.073975 1134.535645,887.592224 1136.056030,871.212708 
	C1135.668701,860.506531 1135.281372,849.800293 1135.051636,838.172974 
	C1134.698730,834.068848 1134.345825,829.964661 1133.998413,824.983276 
z"></path>
<path fill="#044584" opacity="1.000000" stroke="none" d="
M918.533264,825.889160 
	C919.733948,828.098511 920.244019,830.395691 921.261719,832.440186 
	C935.593567,861.233276 949.948730,890.014893 964.388611,918.753845 
	C989.448730,968.629883 1014.551331,1018.484619 1039.676147,1068.328125 
	C1053.324341,1095.403809 1067.067505,1122.431641 1080.720825,1149.504883 
	C1081.682007,1151.410889 1082.254150,1153.513184 1083.029053,1155.930664 
	C1065.729004,1162.147095 1048.566772,1168.500122 1031.051025,1173.650146 
	C997.737305,1183.445312 964.221436,1192.552612 930.282837,1201.619873 
	C928.934875,1200.920776 927.869019,1200.012451 927.286987,1200.256836 
	C921.472900,1202.697754 919.450012,1199.144287 917.265991,1194.698730 
	C906.999695,1173.800781 896.583557,1152.974609 885.975952,1132.248169 
	C884.865234,1130.078003 882.142456,1128.733032 880.091064,1126.541748 
	C879.675110,1117.651367 879.100891,1109.226196 879.042786,1100.797363 
	C878.901123,1080.230347 876.029297,1059.984375 871.905151,1039.918091 
	C868.474670,1023.226257 862.949097,1007.204956 853.583191,992.808044 
	C837.088867,967.453369 813.226562,954.739502 784.018555,952.570129 
	C784.018555,940.449280 783.402100,928.355408 784.175720,916.351135 
	C785.128723,901.562988 787.239807,886.849365 788.994873,871.675293 
	C789.734619,860.834351 790.329956,850.421631 791.176392,839.711182 
	C791.563293,836.834351 791.699219,834.255249 791.882324,831.525330 
	C791.929504,831.374512 792.014160,831.069885 792.014160,831.069885 
	C823.591797,830.120605 855.173584,829.286804 886.744751,828.157043 
	C897.203369,827.782776 907.634827,826.647095 918.533264,825.889160 
z"></path>
<path fill="#03316F" opacity="1.000000" stroke="none" d="
M698.000000,1240.999756 
	C689.049072,1241.637817 680.104736,1242.684082 671.145813,1242.828125 
	C653.154297,1243.117432 635.125549,1243.575806 617.164368,1242.782593 
	C574.113831,1240.881592 531.502319,1235.896851 491.355499,1218.821167 
	C468.017303,1208.894531 447.134033,1195.436279 433.496063,1173.120728 
	C423.049713,1156.027710 419.421112,1137.361938 421.623047,1117.532227 
	C425.659668,1081.179932 443.030975,1050.641968 463.928650,1021.783447 
	C490.460724,985.144287 522.477600,953.658936 556.795166,924.412842 
	C564.520691,917.828918 572.422546,911.451782 580.598145,905.294678 
	C581.590515,907.982422 581.852234,910.542542 582.928223,912.695801 
	C588.502625,923.851440 594.386047,934.852478 599.976807,946.000244 
	C619.371765,984.672668 638.675476,1023.390808 658.083862,1062.056396 
	C658.998474,1063.878540 660.585449,1065.363159 661.905273,1067.425049 
	C660.965210,1075.945801 659.619080,1084.022095 659.072693,1092.152222 
	C658.119568,1106.336060 657.649536,1120.552612 656.994629,1134.756226 
	C656.460205,1146.346680 659.210754,1157.224976 664.143066,1168.028076 
	C664.816223,1170.789307 665.215698,1173.291626 666.288879,1175.460327 
	C676.113037,1195.313477 686.075989,1215.097778 695.926392,1234.937866 
	C696.867859,1236.834229 697.320435,1238.973389 698.000000,1240.999756 
z"></path>
<path fill="#0296AD" opacity="1.000000" stroke="none" d="
M782.309875,621.968018 
	C777.760925,587.683716 783.223206,555.123718 799.847168,524.149170 
	C884.855591,523.958130 969.138184,523.984009 1053.420776,523.994385 
	C1065.412842,523.995850 1077.404785,523.922180 1089.396851,523.883240 
	C1103.671509,550.075806 1109.296753,578.195618 1108.012329,607.829895 
	C1107.820801,612.249756 1107.275513,616.654236 1106.339355,621.521729 
	C997.959839,621.974365 890.134827,621.971191 782.309875,621.968018 
z"></path>
<path fill="#033B7A" opacity="1.000000" stroke="none" d="
M880.167542,1127.005127 
	C882.142456,1128.733032 884.865234,1130.078003 885.975952,1132.248169 
	C896.583557,1152.974609 906.999695,1173.800781 917.265991,1194.698730 
	C919.450012,1199.144287 921.472900,1202.697754 927.286987,1200.256836 
	C927.869019,1200.012451 928.934875,1200.920776 929.888550,1201.637207 
	C912.883789,1206.103882 895.861816,1210.688110 878.627747,1214.244507 
	C851.617065,1219.818359 824.463989,1224.702759 797.366638,1229.854736 
	C796.229675,1230.071045 795.046265,1230.042358 793.433716,1229.739990 
	C792.138489,1227.202271 791.458557,1224.969360 790.425415,1222.914185 
	C766.445435,1175.209839 742.422302,1127.526978 718.419922,1079.833862 
	C713.259705,1069.580444 708.235046,1059.257324 702.949463,1049.069336 
	C701.784058,1046.823120 699.775146,1045.014404 698.127563,1042.620117 
	C700.129333,1035.912109 701.808105,1029.449219 704.251892,1023.290039 
	C711.859863,1004.115479 724.584045,990.055786 745.393188,985.381714 
	C761.717041,981.715149 778.221497,981.697754 794.580566,985.741821 
	C811.165283,989.841736 822.895020,1000.087219 830.584473,1015.020020 
	C842.151062,1037.482178 845.109924,1062.007202 847.118774,1086.705444 
	C847.586182,1092.451660 847.732788,1098.223877 848.027832,1103.984131 
	C848.679382,1116.704590 849.958496,1129.432373 849.807556,1142.143311 
	C849.655579,1154.936646 844.693787,1158.197021 832.372498,1155.408325 
	C832.048340,1155.335083 831.730774,1155.227539 831.404114,1155.171265 
	C823.814148,1153.863403 816.184875,1158.511230 813.305603,1166.192261 
	C811.172485,1171.882935 814.822693,1181.011230 821.182739,1183.936768 
	C832.477722,1189.132568 844.101990,1189.758301 855.703979,1184.624023 
	C878.072510,1174.725586 883.827148,1147.171509 880.167542,1127.005127 
z"></path>
<path fill="#0054A5" opacity="1.000000" stroke="none" d="
M1325.828125,912.407837 
	C1325.875366,911.853027 1325.922485,911.298218 1325.960449,910.325439 
	C1325.954956,887.243469 1325.958618,864.579590 1326.452759,841.449463 
	C1334.328003,839.987183 1341.771484,839.305054 1349.086670,837.936646 
	C1371.748901,833.697144 1394.626587,830.227722 1416.922729,824.515869 
	C1440.553101,818.462158 1463.858521,810.874023 1486.866577,802.716980 
	C1525.199829,789.126465 1561.476318,771.014893 1596.366577,750.122864 
	C1603.894775,745.614990 1611.560059,741.336060 1619.162354,736.951660 
	C1618.997437,747.061768 1618.872314,757.172668 1618.650757,767.281494 
	C1618.541870,772.245239 1618.257812,777.205261 1618.047485,782.166748 
	C1617.271973,800.455139 1616.494263,818.743408 1615.281006,837.520325 
	C1613.012939,838.781006 1611.139526,839.467407 1609.356445,840.338623 
	C1592.631348,848.510559 1576.081543,857.061218 1559.175415,864.838379 
	C1520.104736,882.811951 1479.538208,896.712646 1437.788574,906.874939 
	C1415.236816,912.364319 1392.368774,916.669067 1369.501953,920.706726 
	C1355.174438,923.236572 1340.583984,924.276733 1326.056030,925.525879 
	C1325.943115,920.846863 1325.885620,916.627380 1325.828125,912.407837 
z"></path>
<path fill="#0080A9" opacity="1.000000" stroke="none" d="
M782.268799,622.369019 
	C890.134827,621.971191 997.959839,621.974365 1106.231689,621.972168 
	C1102.454590,654.542480 1089.160645,682.994324 1067.046875,707.737305 
	C1062.967651,707.832336 1059.526245,707.988098 1056.084961,707.989136 
	C1005.425659,708.004883 954.766418,708.000061 904.107117,708.000000 
	C880.277283,707.999939 856.447388,707.997314 832.617554,708.002625 
	C829.041321,708.003418 825.465088,708.041382 821.888855,708.062195 
	C803.304749,687.799988 791.453796,664.011292 785.036682,637.415710 
	C783.872070,632.588928 783.152710,627.654663 782.268799,622.369019 
z"></path>
<path fill="#033B7A" opacity="1.000000" stroke="none" d="
M661.859253,1067.005005 
	C660.585449,1065.363159 658.998474,1063.878540 658.083862,1062.056396 
	C638.675476,1023.390808 619.371765,984.672668 599.976807,946.000244 
	C594.386047,934.852478 588.502625,923.851440 582.928223,912.695801 
	C581.852234,910.542542 581.590515,907.982422 580.924927,905.182373 
	C594.543945,894.173828 607.854187,883.118896 621.917542,873.123474 
	C642.791016,858.287842 664.285034,844.327881 685.311218,829.702332 
	C690.094116,826.375427 694.909912,825.831177 700.363708,826.199158 
	C720.936096,827.587280 741.520691,828.795410 762.703491,830.163574 
	C763.306274,830.256226 763.575439,830.483765 763.461182,830.888916 
	C763.366882,834.277832 763.386841,837.261597 763.345581,840.679321 
	C762.238098,851.443909 761.191833,861.774536 760.130615,872.555115 
	C759.956299,876.323975 759.880432,879.649353 759.623962,882.960815 
	C758.083679,902.848877 756.470642,922.731262 754.966736,942.622009 
	C754.732971,945.714294 754.934082,948.839417 754.934082,952.039612 
	C752.722107,952.411926 751.038635,952.513123 749.468689,952.988831 
	C738.879456,956.197632 727.733582,958.270874 717.857605,962.991516 
	C694.563171,974.126160 681.456543,994.323364 673.018433,1017.936890 
	C667.336853,1033.836304 663.990417,1050.287598 661.859253,1067.005005 
z"></path>
<path fill="#0061B1" opacity="1.000000" stroke="none" d="
M1619.222412,736.490112 
	C1611.560059,741.336060 1603.894775,745.614990 1596.366577,750.122864 
	C1561.476318,771.014893 1525.199829,789.126465 1486.866577,802.716980 
	C1463.858521,810.874023 1440.553101,818.462158 1416.922729,824.515869 
	C1394.626587,830.227722 1371.748901,833.697144 1349.086670,837.936646 
	C1341.771484,839.305054 1334.328003,839.987183 1326.528198,840.985168 
	C1325.365601,817.298645 1324.618042,793.610107 1323.931885,769.460999 
	C1351.380005,763.723572 1378.983276,759.361328 1406.096680,752.932312 
	C1438.041504,745.357788 1468.754639,733.780029 1498.703247,720.208069 
	C1531.865601,705.179810 1563.333862,687.244995 1593.221924,666.490173 
	C1599.211792,662.330627 1605.247437,658.236938 1611.608154,654.055420 
	C1613.571899,665.480896 1615.709229,676.920105 1616.680054,688.457397 
	C1618.011108,704.275452 1618.457275,720.167969 1619.222412,736.490112 
z"></path>
<path fill="#004798" opacity="1.000000" stroke="none" d="
M1326.111450,925.985352 
	C1340.583984,924.276733 1355.174438,923.236572 1369.501953,920.706726 
	C1392.368774,916.669067 1415.236816,912.364319 1437.788574,906.874939 
	C1479.538208,896.712646 1520.104736,882.811951 1559.175415,864.838379 
	C1576.081543,857.061218 1592.631348,848.510559 1609.356445,840.338623 
	C1611.139526,839.467407 1613.012939,838.781006 1615.183594,837.975098 
	C1615.049683,850.555786 1614.576660,863.170288 1614.160522,874.265625 
	C1608.666626,877.027344 1603.677734,878.712708 1599.650879,881.696777 
	C1577.992188,897.746887 1556.761719,914.377686 1535.019531,930.311462 
	C1511.134766,947.815552 1486.854980,964.780457 1462.139160,981.816650 
	C1459.930054,981.637939 1458.263550,981.321960 1456.738281,981.653992 
	C1438.227051,985.684448 1419.832642,990.325012 1401.219849,993.799377 
	C1367.109741,1000.166504 1332.582153,1003.374207 1298.008179,1006.019531 
	C1303.915771,987.548279 1309.823364,969.077026 1316.335571,950.307373 
	C1319.815552,950.008911 1322.690918,950.008911 1326.111450,950.008911 
	C1326.111450,941.423157 1326.111450,933.704285 1326.111450,925.985352 
z"></path>
<path fill="#08A9AC" opacity="1.000000" stroke="none" d="
M1089.283813,523.537292 
	C1077.404785,523.922180 1065.412842,523.995850 1053.420776,523.994385 
	C969.138184,523.984009 884.855591,523.958130 800.074097,523.908447 
	C813.591675,496.057312 834.634460,474.853851 861.124817,458.875580 
	C880.631165,447.109955 901.790283,439.639679 924.403076,437.313110 
	C979.726929,431.620911 1027.190796,448.433411 1065.127075,489.402588 
	C1074.441650,499.461761 1081.224121,511.865509 1089.283813,523.537292 
z"></path>
<path fill="#013477" opacity="1.000000" stroke="none" d="
M698.154663,1043.004272 
	C699.775146,1045.014404 701.784058,1046.823120 702.949463,1049.069336 
	C708.235046,1059.257324 713.259705,1069.580444 718.419922,1079.833862 
	C742.422302,1127.526978 766.445435,1175.209839 790.425415,1222.914185 
	C791.458557,1224.969360 792.138489,1227.202271 793.000916,1229.739624 
	C782.416565,1231.758789 771.848999,1233.680176 761.204224,1234.957275 
	C743.616089,1237.067139 725.980957,1238.788696 708.358459,1240.604248 
	C705.229675,1240.926514 702.065979,1240.910400 698.459229,1241.025146 
	C697.320435,1238.973389 696.867859,1236.834229 695.926392,1234.937866 
	C686.075989,1215.097778 676.113037,1195.313477 666.288879,1175.460327 
	C665.215698,1173.291626 664.816223,1170.789307 664.425781,1168.230713 
	C675.992493,1186.241943 695.718506,1192.811401 715.625732,1184.963867 
	C722.385986,1182.298950 725.162292,1177.470459 725.010620,1168.642456 
	C724.911255,1162.855347 721.114319,1157.501831 714.914124,1155.982178 
	C711.545349,1155.156494 707.683350,1155.412720 704.219604,1156.085693 
	C695.074829,1157.862671 690.206360,1155.025757 689.227539,1145.802124 
	C688.560913,1139.521240 688.737000,1133.102661 689.068237,1126.773560 
	C689.938599,1110.141479 690.628357,1093.476929 692.307861,1076.918335 
	C693.462646,1065.533081 696.151489,1054.303467 698.154663,1043.004272 
z"></path>
<path fill="#006FA6" opacity="1.000000" stroke="none" d="
M822.015930,708.374634 
	C825.465088,708.041382 829.041321,708.003418 832.617554,708.002625 
	C856.447388,707.997314 880.277283,707.999939 904.107117,708.000000 
	C954.766418,708.000061 1005.425659,708.004883 1056.084961,707.989136 
	C1059.526245,707.988098 1062.967651,707.832336 1066.762939,707.908936 
	C1050.797852,727.392395 1030.585449,741.340881 1007.409119,751.133606 
	C991.665161,757.785950 975.243347,761.796082 958.186462,763.031250 
	C904.046875,766.951965 858.907837,748.288208 822.015930,708.374634 
z"></path>
<path fill="#013C85" opacity="1.000000" stroke="none" d="
M1297.947510,1006.381714 
	C1332.582153,1003.374207 1367.109741,1000.166504 1401.219849,993.799377 
	C1419.832642,990.325012 1438.227051,985.684448 1456.738281,981.653992 
	C1458.263550,981.321960 1459.930054,981.637939 1461.806641,981.923706 
	C1449.165527,990.357605 1436.445068,998.853210 1423.294189,1006.619934 
	C1386.910522,1028.107666 1349.927246,1048.506226 1311.484375,1066.133545 
	C1296.371460,1073.063354 1281.171753,1079.804810 1265.974976,1086.549561 
	C1264.573364,1087.171631 1262.905029,1087.192871 1261.208496,1087.168945 
	C1262.804810,1084.694824 1265.142944,1082.802124 1266.210083,1080.355225 
	C1276.888794,1055.870239 1287.358398,1031.294312 1297.947510,1006.381714 
z"></path>
<path fill="#022459" opacity="1.000000" stroke="none" d="
M763.220947,829.142517 
	C762.425842,824.666687 764.086792,822.686035 768.826355,822.938416 
	C774.117004,823.220093 779.434204,822.996887 784.739807,823.003845 
	C791.797668,823.013062 791.797668,823.017395 791.984253,830.628784 
	C792.014160,831.069885 791.929504,831.374512 791.455200,831.336792 
	C781.924011,830.923279 772.867065,830.547424 763.761719,829.973633 
	C763.613342,829.514771 763.449280,829.303711 763.220947,829.142517 
z"></path>
<path fill="#033B7A" opacity="1.000000" stroke="none" d="
M763.156860,829.360107 
	C763.449280,829.303711 763.613342,829.514771 763.710815,830.055298 
	C763.708374,830.334839 763.575439,830.483765 763.575439,830.483765 
	C763.575439,830.483765 763.306274,830.256226 763.172119,830.142090 
	C763.038025,830.027954 763.092773,829.577637 763.156860,829.360107 
z"></path>
<path fill="#FEFEFE" opacity="1.000000" stroke="none" d="
M1135.793701,872.135620 
	C1134.535645,887.592224 1133.524292,903.073975 1131.948730,918.498108 
	C1130.427734,933.388916 1128.324951,948.220276 1126.406860,963.648010 
	C1128.244873,964.337219 1130.530151,965.122925 1132.760742,966.041748 
	C1155.342041,975.342529 1169.969238,991.882812 1174.650391,1015.744751 
	C1183.680786,1061.776855 1146.928345,1099.817261 1103.268555,1096.873047 
	C1074.999756,1094.966553 1050.705811,1074.046143 1042.755981,1046.625244 
	C1032.171387,1010.116028 1057.685059,970.982666 1092.231934,963.561462 
	C1096.456299,962.653992 1097.828613,961.227844 1098.256104,956.572327 
	C1099.250122,945.751648 1101.976318,935.099243 1103.190674,924.287598 
	C1105.112671,907.177429 1106.371704,889.992798 1108.408325,872.378906 
	C1117.868286,871.990601 1126.830933,872.063110 1135.793701,872.135620 
M1123.584839,997.758911 
	C1115.411987,993.642090 1106.675537,993.906128 1098.284180,995.904785 
	C1080.897339,1000.045837 1067.371582,1021.996338 1075.573364,1041.736450 
	C1082.180054,1057.636963 1098.924805,1067.173828 1115.436890,1063.533447 
	C1129.658325,1060.398071 1140.689941,1049.005127 1142.881592,1035.189941 
	C1145.316040,1019.843872 1138.567505,1006.369324 1123.584839,997.758911 
z"></path>
<path fill="#8EA9C6" opacity="1.000000" stroke="none" d="
M1135.924805,871.674194 
	C1126.830933,872.063110 1117.868286,871.990601 1108.434814,871.941528 
	C1107.735718,861.340149 1107.507324,850.715271 1107.727417,839.633301 
	C1117.082031,839.148865 1125.988159,839.121460 1134.894165,839.094116 
	C1135.281372,849.800293 1135.668701,860.506531 1135.924805,871.674194 
z"></path>
<path fill="#006B9C" opacity="1.000000" stroke="none" d="
M1106.072876,826.013672 
	C1106.240479,820.664368 1104.878174,815.207703 1109.676025,810.640015 
	C1114.182251,806.350037 1118.819580,804.947937 1124.598022,807.046570 
	C1130.432007,809.165100 1132.999390,813.761169 1133.904907,819.505615 
	C1134.186646,821.292053 1133.980957,823.155212 1133.528320,825.447571 
	C1124.063232,825.945801 1115.067993,825.979736 1106.072876,826.013672 
z"></path>
<path fill="#487DAC" opacity="1.000000" stroke="none" d="
M1106.079834,826.447266 
	C1115.067993,825.979736 1124.063232,825.945801 1133.525635,825.886230 
	C1134.345825,829.964661 1134.698730,834.068848 1134.972900,838.633545 
	C1125.988159,839.121460 1117.082031,839.148865 1107.731079,839.195740 
	C1106.886230,835.103760 1106.486450,830.992310 1106.079834,826.447266 
z"></path>
<path fill="#06080B" opacity="1.000000" stroke="none" d="
M1326.056030,925.525879 
	C1326.111450,933.704285 1326.111450,941.423157 1326.111450,950.008911 
	C1322.690918,950.008911 1319.815552,950.008911 1316.488892,949.957275 
	C1319.171509,937.581787 1322.305298,925.257935 1325.633545,912.671021 
	C1325.885620,916.627380 1325.943115,920.846863 1326.056030,925.525879 
z"></path>
<path fill="#FEFEFE" opacity="1.000000" stroke="none" d="
M698.127563,1042.620117 
	C696.151489,1054.303467 693.462646,1065.533081 692.307861,1076.918335 
	C690.628357,1093.476929 689.938599,1110.141479 689.068237,1126.773560 
	C688.737000,1133.102661 688.560913,1139.521240 689.227539,1145.802124 
	C690.206360,1155.025757 695.074829,1157.862671 704.219604,1156.085693 
	C707.683350,1155.412720 711.545349,1155.156494 714.914124,1155.982178 
	C721.114319,1157.501831 724.911255,1162.855347 725.010620,1168.642456 
	C725.162292,1177.470459 722.385986,1182.298950 715.625732,1184.963867 
	C695.718506,1192.811401 675.992493,1186.241943 664.464600,1167.817139 
	C659.210754,1157.224976 656.460205,1146.346680 656.994629,1134.756226 
	C657.649536,1120.552612 658.119568,1106.336060 659.072693,1092.152222 
	C659.619080,1084.022095 660.965210,1075.945801 661.905273,1067.425049 
	C663.990417,1050.287598 667.336853,1033.836304 673.018433,1017.936890 
	C681.456543,994.323364 694.563171,974.126160 717.857605,962.991516 
	C727.733582,958.270874 738.879456,956.197632 749.468689,952.988831 
	C751.038635,952.513123 752.722107,952.411926 754.934082,952.039612 
	C754.934082,948.839417 754.732971,945.714294 754.966736,942.622009 
	C756.470642,922.731262 758.083679,902.848877 759.623962,882.960815 
	C759.880432,879.649353 759.956299,876.323975 760.587646,872.505127 
	C770.323181,872.038086 779.586731,872.070862 788.850342,872.103638 
	C787.239807,886.849365 785.128723,901.562988 784.175720,916.351135 
	C783.402100,928.355408 784.018555,940.449280 784.018555,952.570129 
	C813.226562,954.739502 837.088867,967.453369 853.583191,992.808044 
	C862.949097,1007.204956 868.474670,1023.226257 871.905151,1039.918091 
	C876.029297,1059.984375 878.901123,1080.230347 879.042786,1100.797363 
	C879.100891,1109.226196 879.675110,1117.651367 880.091064,1126.541748 
	C883.827148,1147.171509 878.072510,1174.725586 855.703979,1184.624023 
	C844.101990,1189.758301 832.477722,1189.132568 821.182739,1183.936768 
	C814.822693,1181.011230 811.172485,1171.882935 813.305603,1166.192261 
	C816.184875,1158.511230 823.814148,1153.863403 831.404114,1155.171265 
	C831.730774,1155.227539 832.048340,1155.335083 832.372498,1155.408325 
	C844.693787,1158.197021 849.655579,1154.936646 849.807556,1142.143311 
	C849.958496,1129.432373 848.679382,1116.704590 848.027832,1103.984131 
	C847.732788,1098.223877 847.586182,1092.451660 847.118774,1086.705444 
	C845.109924,1062.007202 842.151062,1037.482178 830.584473,1015.020020 
	C822.895020,1000.087219 811.165283,989.841736 794.580566,985.741821 
	C778.221497,981.697754 761.717041,981.715149 745.393188,985.381714 
	C724.584045,990.055786 711.859863,1004.115479 704.251892,1023.290039 
	C701.808105,1029.449219 700.129333,1035.912109 698.127563,1042.620117 
z"></path>
<path fill="#8EA9C6" opacity="1.000000" stroke="none" d="
M788.994812,871.675293 
	C779.586731,872.070862 770.323181,872.038086 760.602600,872.055298 
	C761.191833,861.774536 762.238098,851.443909 763.781982,840.662170 
	C773.161499,840.143738 782.043457,840.076355 790.925293,840.008972 
	C790.329956,850.421631 789.734619,860.834351 788.994812,871.675293 
z"></path>
<path fill="#487DAC" opacity="1.000000" stroke="none" d="
M791.176392,839.711182 
	C782.043457,840.076355 773.161499,840.143738 763.843201,840.228271 
	C763.386841,837.261597 763.366882,834.277832 763.461182,830.888916 
	C763.575439,830.483765 763.708374,830.334839 763.759277,830.253174 
	C772.867065,830.547424 781.924011,830.923279 791.408020,831.487671 
	C791.699219,834.255249 791.563293,836.834351 791.176392,839.711182 
z"></path>
<path fill="#054D8D" opacity="1.000000" stroke="none" d="
M1123.933105,997.905396 
	C1138.567505,1006.369324 1145.316040,1019.843872 1142.881592,1035.189941 
	C1140.689941,1049.005127 1129.658325,1060.398071 1115.436890,1063.533447 
	C1098.924805,1067.173828 1082.180054,1057.636963 1075.573364,1041.736450 
	C1067.371582,1021.996338 1080.897339,1000.045837 1098.284180,995.904785 
	C1106.675537,993.906128 1115.411987,993.642090 1123.933105,997.905396 
z"></path>
</svg>